<svg width="20" height="20" viewBox="0 0 20 20" fill="none" xmlns="http://www.w3.org/2000/svg">
<path d="M17.4997 3.33398H2.49967C1.5792 3.33398 0.833008 4.08018 0.833008 5.00065V15.0007C0.833008 15.9211 1.5792 16.6673 2.49967 16.6673H17.4997C18.4202 16.6673 19.1663 15.9211 19.1663 15.0007V5.00065C19.1663 4.08018 18.4202 3.33398 17.4997 3.33398Z" stroke="#2F3567" stroke-width="1.5" stroke-linecap="round" stroke-linejoin="round"/>
<path d="M11.2942 14.774C11.2173 14.7745 11.1412 14.759 11.0706 14.7285C11 14.6979 10.9365 14.653 10.8842 14.5967L7.338 10.7845C7.24826 10.6865 7.1902 10.5638 7.17141 10.4323C7.15263 10.3008 7.174 10.1667 7.23272 10.0475C7.29118 9.9289 7.38479 9.8312 7.50081 9.76774C7.61683 9.70427 7.7496 9.67814 7.88101 9.6929C8.24651 9.75945 8.62184 9.74949 8.98329 9.66366C9.34475 9.57782 9.68448 9.41798 9.98104 9.19421C10.1672 9.02831 10.3137 8.82264 10.4096 8.59244C10.5056 8.36224 10.5484 8.11341 10.5351 7.86438C10.5351 7.15514 10.3301 6.34062 8.72324 6.34062H7.5541C7.40714 6.34062 7.26621 6.28224 7.16229 6.17832C7.05838 6.07441 7 5.93347 7 5.78652C7 5.63956 7.05838 5.49863 7.16229 5.39471C7.26621 5.2908 7.40714 5.23242 7.5541 5.23242H8.70108C10.5573 5.23242 11.6212 6.19101 11.6212 7.86438C11.6367 8.26776 11.564 8.66967 11.408 9.04199C11.252 9.41431 11.0165 9.74803 10.718 10.0198C10.1897 10.4671 9.53496 10.7382 8.84514 10.7956L11.6821 13.8431C11.7553 13.922 11.804 14.0206 11.8221 14.1267C11.8402 14.2328 11.827 14.3419 11.784 14.4407C11.7411 14.5394 11.6704 14.6235 11.5805 14.6827C11.4905 14.7419 11.3853 14.7736 11.2776 14.774H11.2942Z" fill="#FF6F3F" stroke="#FF6F3F" stroke-width="0.3"/>
<path d="M12.4199 6.34062H8.45253C8.30558 6.34062 8.16464 6.28224 8.06073 6.17832C7.95681 6.07441 7.89844 5.93347 7.89844 5.78652C7.89844 5.63956 7.95681 5.49863 8.06073 5.39471C8.16464 5.2908 8.30558 5.23242 8.45253 5.23242H12.4199C12.5668 5.23242 12.7078 5.2908 12.8117 5.39471C12.9156 5.49863 12.974 5.63956 12.974 5.78652C12.974 5.93347 12.9156 6.07441 12.8117 6.17832C12.7078 6.28224 12.5668 6.34062 12.4199 6.34062Z" fill="#FF6F3F" stroke="#FF6F3F" stroke-width="0.3"/>
<path d="M12.446 8.47929H7.60878C7.46183 8.47929 7.32089 8.42091 7.21698 8.317C7.11306 8.21308 7.05469 8.07215 7.05469 7.92519C7.05469 7.77824 7.11306 7.6373 7.21698 7.53338C7.32089 7.42947 7.46183 7.37109 7.60878 7.37109H12.446C12.593 7.37109 12.7339 7.42947 12.8379 7.53338C12.9418 7.6373 13.0001 7.77824 13.0001 7.92519C13.0001 8.07215 12.9418 8.21308 12.8379 8.317C12.7339 8.42091 12.593 8.47929 12.446 8.47929Z" fill="#FF6F3F" stroke="#FF6F3F" stroke-width="0.3"/>
</svg>
