<svg width="137" height="113" viewBox="0 0 137 113" fill="none" xmlns="http://www.w3.org/2000/svg">
<g opacity="0.4">
<path d="M56.0139 14.2266C50.1817 16.2379 46.0607 11.724 40.2561 14.4047C34.4516 17.0854 32.6543 27.2769 29.8874 34.0569C27.1206 40.8369 21.4577 40.5052 12.3446 44.0672C3.23161 47.6291 -4.82268 68.5741 3.47167 84.1361C11.766 99.6982 25.8649 109.521 44.0971 101.639C62.3293 93.7565 85.7043 103.963 96.4854 107.719C107.267 111.474 128.429 103.435 132.033 85.3644C135.637 67.2936 119.722 59.4542 119.168 50.6967C118.614 41.9392 117.786 26.2021 100.369 26.024C82.9528 25.8459 89.7822 6.47625 75.748 6.0003C65.6009 5.65639 60.1441 12.7957 56.0139 14.2266Z" fill="#E1E3E3"/>
<path d="M104.411 10.7256C94.9716 9.20558 90.3304 18.0951 96.2642 18.2671C102.198 18.439 108.575 17.6836 109.566 22.2773C110.557 26.871 119.19 19.0378 113.533 16.8883C107.876 14.7389 111.917 11.9323 104.411 10.7256Z" fill="#FFD4C5"/>
<path d="M125.662 40.7687C121.584 42.9028 125.354 59.0974 130.485 59.3523C135.615 59.6072 133.338 54.0063 131.371 50.6961C129.405 47.386 129.795 38.6039 125.662 40.7687Z" fill="#FFD4C5"/>
<path d="M121.975 23.7975C118.476 24.3809 119.316 30.1629 122.369 29.3984C125.422 28.6338 125.025 23.2908 121.975 23.7975Z" fill="#FFD4C5"/>
<path d="M54.752 1.22806C46.75 5.42564 48.3566 13.2036 56.7217 8.73888C65.0868 4.27415 62.5293 -2.86205 54.752 1.22806Z" fill="#FFD4C5"/>
<path d="M17.411 22.9801C8.78422 26.8061 2.15489 34.9434 4.81093 39.273C7.46698 43.6026 11.5049 36.2023 18.0019 35.9628C24.4989 35.7233 30.8943 16.9954 17.411 22.9801Z" fill="#FFD4C5"/>
<path d="M61.2458 103.386C49.1166 104.034 45.3157 113.688 59.8608 112.792C74.4059 111.895 78.0438 102.49 61.2458 103.386Z" fill="#FFEEE8"/>
</g>
<path opacity="0.4" d="M57.553 31.3519C52.6041 32.9026 49.1017 29.4236 44.1743 31.4901C39.247 33.5567 37.7112 41.4145 35.3691 46.6499C33.027 51.8854 28.2104 51.6121 20.4608 54.3695C12.7112 57.127 5.90027 73.251 12.942 85.2419C19.9838 97.2328 31.959 104.814 47.4521 98.7528C62.9451 92.6913 82.7839 100.546 91.94 103.439C101.096 106.331 119.057 100.131 122.101 86.2122C125.145 72.2929 111.656 66.2253 111.185 59.473C110.714 52.7206 110.012 40.5885 95.2208 40.4503C80.4295 40.3121 85.1691 26.2362 74.3264 25.0141C65.7643 24.0469 61.0708 30.2496 57.553 31.3519Z" fill="#CBCBCB"/>
<path d="M73.9291 36.9388C73.9291 36.9388 76.4158 38.8641 78.5671 39.3185C80.7184 39.773 76.7975 45.684 76.7975 45.684C76.7975 45.684 72.344 47.2193 72.344 50.3944C72.344 53.5694 73.8275 54.2972 71.4669 56.115C69.1063 57.9328 68.2969 60.3525 73.2212 60.3525C78.1455 60.3525 81.2509 55.2399 81.2509 55.2399L81.5217 39.2234C81.5217 39.2234 79.2288 34.3103 79.2288 34.1076C79.2288 33.905 77.4068 33.6348 77.4068 33.6348L73.9291 36.9388Z" fill="#2F3567"/>
<path d="M69.8632 57.7285C66.7332 59.1072 57.26 75.4585 55.6504 79.9017C54.0408 84.3449 57.3555 87.4616 61.2395 85.3828C65.1235 83.304 71.6605 73.8525 71.6605 73.8525L69.8632 57.7285Z" fill="#F25925"/>
<path d="M87.265 100.61H70.6455C70.6455 100.61 71.3534 87.6765 71.2333 80.8566C71.1841 78.0439 71.5134 74.2608 72.052 70.5515C72.8184 65.273 74.0063 60.142 75.1297 58.1676C77.0317 54.7898 77.0009 53.9362 80.4079 53.5892C83.1409 53.3129 88.6346 51.9464 91.1798 54.6824C91.87 55.4556 92.3098 56.4189 92.4417 57.446C92.9464 60.535 87.265 100.61 87.265 100.61Z" fill="#E5D157"/>
<g style="mix-blend-mode:multiply" opacity="0.3">
<path d="M87.265 100.61H70.6455C70.6455 100.61 71.3534 87.6766 71.2333 80.8567C71.1841 78.044 71.5134 74.261 72.052 70.5516C73.1815 75.1791 75.6744 77.2671 77.4934 78.8731C80.7157 81.7073 90.1857 54.6855 90.1857 54.6855C90.1857 54.6855 90.5458 54.6855 91.186 54.6855C91.8761 55.4588 92.316 56.4221 92.4478 57.4491C92.9464 60.5351 87.265 100.61 87.265 100.61Z" fill="#4A6C8F"/>
</g>
<path d="M79.7784 42.3985C80.0024 40.2325 78.7776 38.3319 77.0429 38.1533C75.3082 37.9748 73.7203 39.5859 73.4963 41.7519C73.2724 43.9179 74.4971 45.8186 76.2319 45.9971C77.9666 46.1757 79.5544 44.5645 79.7784 42.3985Z" fill="#2F3567"/>
<path d="M75.9206 45.236L74.0247 47.1275C73.9614 47.1894 73.8763 47.224 73.7877 47.224C73.6991 47.224 73.614 47.1894 73.5507 47.1275C73.5192 47.0964 73.4942 47.0593 73.4771 47.0185C73.46 46.9776 73.4512 46.9338 73.4512 46.8895C73.4512 46.8452 73.46 46.8014 73.4771 46.7606C73.4942 46.7197 73.5192 46.6827 73.5507 46.6515L75.4435 44.7631C75.5064 44.7 75.5918 44.6644 75.681 44.6641C75.7701 44.6638 75.8558 44.6988 75.919 44.7615C75.9823 44.8243 76.018 44.9095 76.0183 44.9984C76.0186 45.0874 75.9834 45.1729 75.9206 45.236Z" fill="#18203D"/>
<path d="M79.5424 41.9945C79.6716 40.7445 78.965 39.6476 77.964 39.5446C76.9631 39.4416 76.0469 40.3714 75.9176 41.6214C75.7884 42.8714 76.495 43.9683 77.496 44.0713C78.4969 44.1743 79.4131 43.2445 79.5424 41.9945Z" fill="white" stroke="#272525" stroke-miterlimit="10"/>
<path d="M74.0242 63.3194L72.67 75.1905C72.67 75.1905 73.147 81.3165 73.3563 86.5335C73.3963 87.5315 73.4271 88.4957 73.4456 89.3769C73.541 94.8765 73.9288 101.15 73.9288 101.15L64.5449 100.956C64.5449 100.956 68.9953 83.684 68.8968 80.4966C68.8475 78.8999 68.4105 77.036 68.0104 75.2919C67.6103 73.5477 67.2533 71.9541 67.3487 70.8486C67.5457 68.6285 69.4784 64.4003 69.4784 64.4003C69.4784 64.4003 69.2846 58.2068 69.8632 57.7277C70.4418 57.2487 78.6099 54.0859 78.6099 54.0859L74.0242 63.3194Z" fill="#FF6F3F"/>
<g style="mix-blend-mode:multiply" opacity="0.3">
<path d="M64.5449 100.957C64.5449 100.957 68.9953 83.6851 68.8968 80.4977C68.8475 78.901 68.4105 77.0371 68.0104 75.293C69.5713 79.1409 71.3563 82.8945 73.3563 86.5346C73.3963 87.5326 73.4271 88.4968 73.4456 89.3781C73.541 94.8776 73.9288 101.151 73.9288 101.151L64.5449 100.957Z" fill="#FF6F3F"/>
</g>
<path d="M79.4411 53.1895C78.5516 53.3368 74.0859 58.8057 72.0546 61.3605C71.9225 61.5273 71.8254 61.719 71.7692 61.9241C71.713 62.1292 71.6989 62.3435 71.7276 62.5542C71.7563 62.7649 71.8274 62.9676 71.9364 63.1503C72.0455 63.333 72.1904 63.4919 72.3624 63.6174L73.6581 64.5754L70.9343 65.5519C70.6244 65.6629 70.3569 65.8674 70.1688 66.137C69.9807 66.4067 69.8815 66.728 69.8848 67.0565C69.9095 70.5141 70.2665 81.2337 73.4642 89.3771C73.4642 89.3771 73.2734 73.5509 75.2062 64.9623C77.1389 56.3737 79.4411 53.1895 79.4411 53.1895Z" fill="#D15735"/>
<path d="M98.8803 61.7776C98.6829 62.6407 98.4321 63.4909 98.1293 64.3231C96.2827 69.7551 91.8201 81.3376 91.8201 84.2609C91.8201 87.832 95.8857 101.149 95.8857 101.149H77.8936L79.2477 89.2783L80.5188 84.3653L80.7958 83.2936L87.7575 55.9832L87.4682 53.668C87.4682 53.668 92.5957 54.9208 95.6918 56.1767C98.788 57.4326 99.2681 59.364 98.8803 61.7776Z" fill="#FF6F3F"/>
<g style="mix-blend-mode:multiply" opacity="0.3">
<path d="M94.5592 96.6029C95.2917 99.2068 95.8857 101.151 95.8857 101.151H77.8936L79.2477 89.2794L79.4232 88.61L80.5188 84.3694L84.3844 84.2374L89.1086 84.0716C89.1086 84.0716 82.7686 82.4718 83.1502 81.48C83.5319 80.4881 96.2119 71.8013 96.5197 65.0182L98.1293 64.3242C96.2827 69.7562 91.8201 81.3387 91.8201 84.262C91.8503 85.074 91.947 85.8822 92.1094 86.6786C92.611 89.4698 93.6851 93.5016 94.5592 96.6029Z" fill="#FF6F3F"/>
</g>
<path d="M87.0985 53.1896C87.0985 53.1896 82.0665 71.5244 79.2627 89.2789C79.2627 89.2789 87.0308 76.3607 89.5206 69.3995C89.6415 69.0706 89.649 68.7108 89.542 68.3772C89.435 68.0435 89.2195 67.7549 88.9297 67.5571L86.4214 65.8191L89.1913 64.898C89.5532 64.7771 89.8593 64.5303 90.0537 64.2027C90.2481 63.8751 90.3178 63.4886 90.25 63.1139C89.733 60.2766 88.545 53.9019 88.1695 53.4628C88.0495 53.3016 87.8776 53.1864 87.6826 53.1367C87.4876 53.0869 87.2813 53.1056 87.0985 53.1896Z" fill="#D15735"/>
<path d="M81.919 78.916L81.8882 79.134L81.0819 84.781C81.0819 84.781 75.542 83.5251 75.2035 82.825C74.9804 82.3194 74.8611 81.7744 74.8526 81.2221C74.8526 81.2221 74.3633 80.5926 74.154 80.2425C73.9447 79.8925 73.8062 78.4278 73.8062 78.4278C73.8062 78.4278 70.2361 76.5455 69.8052 76.2783C69.5181 76.0517 69.2935 75.7558 69.1528 75.4185C69.0389 75.136 69.042 74.8873 69.3159 74.8259C69.3624 74.8156 69.4098 74.8104 69.4575 74.8105C70.2977 74.8105 74.9973 76.6959 74.9973 76.6959C74.9973 76.6959 77.1517 75.7747 77.7272 75.8607C78.1396 75.9098 80.214 77.4605 81.285 78.3418C81.5165 78.5098 81.7291 78.7023 81.919 78.916Z" fill="#DD9091"/>
<path d="M81.9185 78.9311L81.0814 84.7929C81.0814 84.7929 75.5416 83.537 75.2061 82.84C74.9813 82.3338 74.8609 81.7876 74.8522 81.2341C74.8522 81.2341 74.3628 80.6199 74.1535 80.2545C73.9442 79.8891 73.8057 78.4398 73.8057 78.4398C73.8057 78.4398 70.2356 76.5575 69.8048 76.2903C69.3739 76.0232 68.7122 74.973 69.3154 74.8379C71.162 76.4285 74.8214 77.8226 74.8214 77.8226C74.8214 77.8226 76.271 81.0467 77.2835 81.7131C78.1761 82.3067 79.5097 81.187 81.2845 78.3538C81.5164 78.5224 81.7291 78.716 81.9185 78.9311Z" fill="#D36E75"/>
<path d="M81.9186 78.9146L81.8878 79.1326L81.8478 79.1787C81.8478 79.1787 78.3454 76.4151 77.5821 76.3291C76.8188 76.2432 74.8861 76.9709 74.8861 76.9709C74.8861 76.9709 70.685 75.3189 69.1616 75.4049C69.0477 75.1224 69.0508 74.8736 69.3247 74.8122C69.3712 74.8019 69.4186 74.7968 69.4663 74.7969C70.3065 74.7969 75.0061 76.6823 75.0061 76.6823C75.0061 76.6823 77.1605 75.7611 77.736 75.847C78.1484 75.8962 80.2228 77.4469 81.2938 78.3281C81.5227 78.5005 81.7322 78.6972 81.9186 78.9146Z" fill="white"/>
<path d="M105.171 91.1978C104.395 94.5755 98.4953 93.0402 92.6908 90.7157C86.8863 88.3912 79.4414 85.0227 79.4414 85.0227L80.2908 81.8876L81.2142 78.5098L81.3865 77.8957L96.2794 82.7197C96.2394 82.56 94.7006 76.2713 93.9465 71.0697C93.7649 69.8045 93.6388 68.6131 93.5711 67.5722C93.3248 63.086 96.1194 58.741 96.9904 57.5004C97.1535 57.2732 97.2458 57.1504 97.2458 57.1504C99.9572 58.2128 101.696 60.4299 102.567 68.5394C103.183 74.1557 104.565 81.255 105.103 86.211C105.334 88.4004 105.408 90.1722 105.171 91.1978Z" fill="#FF6F3F"/>
<path d="M101.564 85.5176C101.428 85.4746 97.1039 84.059 94.9988 83.3835C93.3369 82.8522 84.8979 79.8338 81.2139 78.5165L81.3862 77.9023L96.2791 82.7263C97.6825 83.3343 101.437 85.45 101.564 85.5176Z" fill="white"/>
<path d="M105.093 86.2052C103.742 83.2328 102.169 73.7813 101.557 67.4589C101.031 61.9962 99.1933 59.033 96.9805 57.4946C97.1436 57.2674 97.2359 57.1445 97.2359 57.1445C99.9474 58.207 101.686 60.424 102.557 68.5336C103.16 74.1498 104.555 81.2491 105.093 86.2052Z" fill="white"/>
<g style="mix-blend-mode:multiply" opacity="0.3">
<path d="M105.171 91.1989C104.395 94.5766 98.4953 93.0413 92.6908 90.7168C86.8863 88.3923 79.4414 85.0238 79.4414 85.0238L80.2908 81.8887C83.1346 83.5345 98.4492 89.3196 101.989 89.1907C103.761 89.1262 104.635 87.6799 105.094 86.1937C105.334 88.4015 105.408 90.1733 105.171 91.1989Z" fill="#4A6C8F"/>
</g>
<g style="mix-blend-mode:multiply" opacity="0.3">
<path d="M101.238 83.2153L96.2704 82.7301C96.2304 82.5705 94.6915 76.2818 93.9375 71.0801C96.4335 75.5909 101.238 83.2153 101.238 83.2153Z" fill="#FF6F3F"/>
</g>
<path d="M86.341 47.2176L86.7227 54.8943C86.291 55.298 85.8139 55.6505 85.3008 55.9444C84.3445 56.5204 83.2661 56.8644 82.1523 56.9485C79.487 57.1021 78.8038 56.0273 78.8038 56.0273L78.8315 53.3313L78.8776 49.493C78.1558 49.5553 77.4357 49.3558 76.8494 48.9311C76.2678 48.4889 75.7507 47.7028 75.6184 46.3763C75.3106 43.4868 76.0339 37.324 78.5299 35.107C79.0225 34.6461 79.6548 34.362 80.3272 34.2994C80.9938 34.2092 81.6646 34.1528 82.337 34.1305C84.4913 34.0568 87.5936 34.2933 87.7906 36.28C88.0922 39.3046 86.341 47.2176 86.341 47.2176Z" fill="#DD9091"/>
<path d="M86.3417 47.2174L86.7234 54.894C86.2917 55.2978 85.8146 55.6502 85.3015 55.9441C84.412 55.1243 83.9196 53.7947 84.0889 51.8725C84.5228 47.0546 82.0176 48.7128 82.0176 48.7128C83.5564 46.2286 84.2366 38.3892 82.3253 34.1364C84.4797 34.0627 87.582 34.2991 87.779 36.2858C88.0929 39.3043 86.3417 47.2174 86.3417 47.2174Z" fill="#D36E75"/>
<path d="M76.8465 48.9335C76.2648 48.4913 75.7478 47.7052 75.6154 46.3787C75.3077 43.4892 76.0309 37.3264 78.5269 35.1094C76.4926 39.1012 75.7878 45.1627 76.8465 48.9335Z" fill="white"/>
<path d="M82.6299 49.3877C81.8389 50.6866 80.5278 52.4584 78.832 53.3335L78.8782 49.4952C79.9691 49.4587 81.0395 49.1897 82.0174 48.706C82.1106 48.6632 82.2151 48.6513 82.3156 48.6721C82.4161 48.6928 82.5073 48.7452 82.5758 48.8214C82.6443 48.8976 82.6865 48.9938 82.6962 49.0957C82.706 49.1976 82.6827 49.2999 82.6299 49.3877Z" fill="#D36E75"/>
<path d="M77.6132 47.6204H76.6899C76.4883 47.6204 76.2949 47.5405 76.1523 47.3983C76.0098 47.256 75.9297 47.0631 75.9297 46.862C75.9305 46.6611 76.0108 46.4686 76.1532 46.3266C76.2956 46.1845 76.4885 46.1043 76.6899 46.1035H77.6132C77.8148 46.1035 78.0082 46.1834 78.1507 46.3257C78.2933 46.4679 78.3734 46.6608 78.3734 46.862C78.3738 46.9617 78.3544 47.0605 78.3163 47.1527C78.2783 47.2449 78.2223 47.3287 78.1516 47.3992C78.0809 47.4697 77.997 47.5255 77.9046 47.5635C77.8122 47.6015 77.7131 47.6208 77.6132 47.6204Z" fill="#18203D"/>
<path d="M76.4652 47.2241H73.7876C73.6986 47.2241 73.6133 47.1888 73.5504 47.1261C73.4875 47.0633 73.4521 46.9782 73.4521 46.8894C73.4521 46.8006 73.4875 46.7155 73.5504 46.6527C73.6133 46.59 73.6986 46.5547 73.7876 46.5547H76.4652C76.5542 46.5547 76.6395 46.59 76.7024 46.6527C76.7653 46.7155 76.8007 46.8006 76.8007 46.8894C76.8007 46.9782 76.7653 47.0633 76.7024 47.1261C76.6395 47.1888 76.5542 47.2241 76.4652 47.2241Z" fill="#18203D"/>
<path d="M93.0627 32.5667C93.063 32.7912 93.0361 33.0149 92.9826 33.233C92.8531 33.7309 92.5853 34.1822 92.2101 34.535C91.825 34.8954 91.3426 35.1356 90.8224 35.2261C90.3022 35.3165 89.7669 35.2533 89.2822 35.0442C88.7975 34.835 88.3847 34.4891 88.0946 34.0489C87.8044 33.6087 87.6495 33.0935 87.649 32.5667C87.6443 32.488 87.6443 32.409 87.649 32.3303C87.7066 31.6348 88.032 30.9887 88.5567 30.5274C89.0815 30.0661 89.765 29.8255 90.4637 29.8561C91.1624 29.8867 91.8221 30.1861 92.3044 30.6915C92.7866 31.1968 93.054 31.8689 93.0503 32.5667H93.0627Z" fill="#2F3567"/>
<path d="M93.0631 32.5677C93.0634 32.7922 93.0366 33.0159 92.9831 33.234C92.8723 32.1224 92.3491 31.0017 90.878 30.5656C90.4431 30.4149 89.9797 30.3642 89.5224 30.4173C89.0651 30.4705 88.6258 30.6262 88.2373 30.8727C88.5863 30.4332 89.0638 30.113 89.6035 29.9567C90.1432 29.8003 90.7183 29.8155 91.2489 30.0002C91.7795 30.1849 92.2393 30.5299 92.5645 30.9873C92.8896 31.4446 93.0639 31.9916 93.0631 32.5523V32.5677Z" fill="white"/>
<path opacity="0.15" d="M92.2101 34.5352C91.825 34.8956 91.3426 35.1358 90.8224 35.2262C90.3022 35.3167 89.7669 35.2535 89.2822 35.0443C88.7975 34.8352 88.3847 34.4892 88.0946 34.0491C87.8044 33.6089 87.6495 33.0937 87.649 32.5669C87.6443 32.4881 87.6443 32.4092 87.649 32.3304C88.5415 31.7163 89.9296 31.1022 91.1514 31.8637C92.127 32.4717 92.3763 33.5218 92.2101 34.5352Z" fill="white"/>
<path d="M104.718 57.5565C104.718 57.6855 104.718 57.8144 104.718 57.9373C104.515 61.622 101.425 62.3959 101.425 62.3959C101.117 60.2832 97.8576 56.8288 95.4324 57.7561C93.0072 58.6834 89.2771 58.8922 89.4894 56.2208C89.7018 53.5493 86.5964 54.1573 85.4607 52.2504C84.3251 50.3435 85.9255 46.9443 85.9255 46.9443L86.4425 43.0262C86.4425 43.0262 86.421 42.9863 86.3717 42.9126C86.1901 42.627 85.6823 41.8409 84.9437 40.8614C84.0204 39.6331 84.482 37.0998 84.482 37.0998C84.6088 36.1489 84.8147 35.2101 85.0976 34.2932C84.3021 35.3244 83.6546 36.4613 83.174 37.671C81.9953 38.0671 80.2164 38.4202 78.6991 37.671C78.112 37.3836 77.4918 37.1691 76.8525 37.0323C77.0593 36.1289 77.4006 35.2615 77.865 34.4591C76.9879 35.0978 76.4154 36.1694 76.1046 36.9156C75.3885 36.817 74.6613 36.8326 73.9502 36.9616C75.2828 30.7067 84.9437 32.196 84.9437 32.196C90.8836 32.0425 92.3301 37.4529 91.453 41.1009C90.5758 44.7488 92.484 49.5544 95.3801 49.0385C98.2762 48.5226 98.7379 51.4091 99.5658 52.5421C100.394 53.6752 104.718 53.5339 104.718 57.5565Z" fill="#2F3567"/>
<path d="M104.718 57.5558C104.718 57.6848 104.718 57.8137 104.718 57.9366C104.395 53.7543 99.828 54.7461 98.72 52.5721C97.5689 50.3152 97.8367 49.7778 95.4638 49.8085C93.0909 49.8392 91.3243 48.1657 90.8226 44.7266C90.321 41.2875 91.3243 39.4113 90.2871 36.1626C89.2499 32.9138 84.655 31.8022 79.823 32.6436C75.1449 33.4573 74.0062 36.7183 73.9385 36.9241C75.2834 30.706 84.9443 32.1953 84.9443 32.1953C90.8842 32.0417 92.3307 37.4522 91.4536 41.1002C90.5764 44.7481 92.4846 49.5537 95.3807 49.0378C98.2768 48.5219 98.7385 51.4083 99.5663 52.5414C100.394 53.6745 104.718 53.5332 104.718 57.5558Z" fill="white"/>
<path d="M104.706 57.9407C104.503 61.6255 101.413 62.3993 101.413 62.3993C101.105 60.2867 97.8461 56.8322 95.4209 57.7596C92.9957 58.6869 89.2655 58.8957 89.4779 56.2242C89.6902 53.5528 86.5848 54.1607 85.4492 52.2539C84.3135 50.347 85.9139 46.9478 85.9139 46.9478L86.4309 43.0296C86.4309 43.0296 86.4094 42.9897 86.3602 42.916C88.256 44.2825 90.4258 45.0931 89.6748 47.7185C88.4161 52.1126 94.7068 48.6612 95.3993 52.3644C96.0918 56.0676 98.5447 54.2467 100.748 56.4453C102.21 57.8977 103.758 58.7207 104.706 57.9407Z" fill="#2F3567"/>
<path d="M88.5355 38.9566C88.5355 38.9566 88.5663 33.7119 84.9377 31.7129H81.9893C81.9893 31.7129 86.1103 33.1254 86.1103 39.2974L88.5355 38.9566Z" fill="#FF6F3F"/>
<path d="M87.477 46.3386C89.221 46.3386 90.6347 44.5733 90.6347 42.3958C90.6347 40.2183 89.221 38.4531 87.477 38.4531C85.7331 38.4531 84.3193 40.2183 84.3193 42.3958C84.3193 44.5733 85.7331 46.3386 87.477 46.3386Z" fill="#FF6F3F"/>
<path d="M88.5359 44.2948C89.5421 44.2948 90.3578 43.2761 90.3578 42.0195C90.3578 40.7629 89.5421 39.7441 88.5359 39.7441C87.5296 39.7441 86.7139 40.7629 86.7139 42.0195C86.7139 43.2761 87.5296 44.2948 88.5359 44.2948Z" fill="#2F3567"/>
<path d="M73.932 47.1902C73.7474 46.8586 72.584 47.3806 71.5376 48.2895C70.3065 49.3519 70.1927 49.4226 70.1927 49.4226C70.1927 49.4226 68.8662 49.7296 68.7 49.7542C68.5338 49.7788 68.2353 50.3161 68.2353 50.3161C67.9163 50.3815 67.6064 50.4845 67.3119 50.6232C66.9288 50.882 66.5829 51.1919 66.284 51.5444C66.284 51.5444 65.5207 51.6734 65.2899 51.9374C65.0591 52.2015 64.3235 54.658 64.1819 55.5792C64.1699 55.641 64.1627 55.7036 64.1604 55.7665C64.1393 56.1975 64.1609 56.6295 64.225 57.0562L64.0988 57.3633L63.4648 58.9569L67.6474 59.7829C68.12 59.0903 68.6997 58.4768 69.3648 57.9651C70.0107 57.5075 70.6275 57.0101 71.2114 56.4759C71.7961 55.785 72.2762 52.4441 72.6487 51.8699C73.021 51.2957 72.6487 50.7 72.1685 51.0715C72.0553 51.1706 71.9522 51.2807 71.8608 51.4001V51.3632C71.862 51.352 71.862 51.3407 71.8608 51.3294C71.6952 51.0659 71.4955 50.8253 71.2668 50.614C72.2916 49.4195 73.8059 47.9609 73.9505 47.4604C73.9683 47.417 73.976 47.37 73.9727 47.3232C73.9695 47.2763 73.9556 47.2308 73.932 47.1902ZM70.2604 53.8167C70.2198 53.3836 70.2198 52.9478 70.2604 52.5147C70.2722 52.5236 70.2845 52.5318 70.2973 52.5393C70.5072 52.6614 70.7541 52.7039 70.9929 52.659C70.5928 53.267 70.2604 53.8167 70.2604 53.8167ZM71.3653 51.8852C71.4048 51.8948 71.4449 51.902 71.4853 51.9067L71.3314 52.1217C71.236 52.0234 71.1067 51.8975 70.9621 51.7624H71.0175C71.1295 51.816 71.2458 51.8602 71.3653 51.8944V51.8852Z" fill="#DD9091"/>
<path d="M72.6579 51.8504C72.2855 52.4338 71.8054 55.7747 71.2206 56.4563C70.6367 56.9906 70.02 57.488 69.374 57.9456C68.7089 58.4572 68.1293 59.0708 67.6566 59.7634L63.4648 58.9559L64.0988 57.3837C65.9455 56.6498 66.4194 55.9957 66.4194 55.6457C66.4194 55.2956 66.4194 53.1677 66.4194 53.1677C66.4194 53.1677 67.1242 52.8606 67.2812 52.9036C67.4381 52.9466 68.8908 53.3089 69.0724 53.2322C69.254 53.1554 68.1922 52.2833 68.1922 52.2833C68.256 52.2035 68.3377 52.1397 68.4307 52.0971C68.5237 52.0544 68.6254 52.0341 68.7277 52.0377C69.2572 52.1413 69.7734 52.3041 70.2665 52.5228C70.226 52.9559 70.226 53.3917 70.2665 53.8248C70.2665 53.8248 70.5989 53.2751 70.9929 52.661C70.9929 52.661 71.3622 52.5321 71.3622 52.4614C71.3622 52.3908 71.3622 52.268 71.3406 52.1298C71.3191 51.9916 71.3222 51.9118 71.3222 51.9118L71.3714 51.8934L71.7469 51.7582L71.8638 51.3529V51.3898C71.9553 51.2704 72.0584 51.1603 72.1716 51.0612C72.6579 50.6804 73.0303 51.2792 72.6579 51.8504Z" fill="#D36E75"/>
<path d="M67.2412 56.6315C67.9358 55.8295 68.7955 55.1864 69.7618 54.7461" stroke="#AF565B" stroke-width="2" stroke-linecap="round" stroke-linejoin="round"/>
<path d="M66.3486 54.7133L66.4133 53.1595L67.275 52.8955C67.275 52.8955 68.9647 53.4236 69.0662 53.2271C69.1678 53.0306 67.5735 51.6918 67.5735 51.6918L66.6779 51.4922" stroke="#AF565B" stroke-width="2" stroke-linecap="round" stroke-linejoin="round"/>
<path d="M68.6665 50.5801L70.0946 51.01C70.5649 51.3869 71.0072 51.7974 71.418 52.2382C71.618 52.5453 70.824 52.8677 70.2915 52.5453C69.8994 52.3255 69.4744 52.17 69.0328 52.0847H68.1279" stroke="#AF565B" stroke-width="2" stroke-linecap="round" stroke-linejoin="round"/>
<path d="M70.3594 49.7207C70.3594 49.7207 71.7166 50.9766 71.849 51.3082C71.9813 51.6399 71.9505 52.168 71.0211 51.7719" stroke="#AF565B" stroke-width="2" stroke-linecap="round" stroke-linejoin="round"/>
<path d="M71.8422 48.485C71.0667 49.05 70.4634 49.5843 70.4634 49.5843L70.9097 50.2199C70.5692 50.0436 70.22 49.8847 69.8633 49.744C69.7063 49.7164 68.703 50.18 68.703 50.18L68.4168 50.5147C68.4168 50.5147 67.1518 51.0582 66.9733 51.1841C66.8082 51.3422 66.6681 51.5245 66.5578 51.7246C66.2241 51.8225 65.9111 51.9807 65.6345 52.1913C65.256 52.44 64.6281 54.2548 64.1973 55.5936C64.3265 54.6724 65.0867 52.1913 65.3022 51.9426C65.5176 51.6939 66.2962 51.5495 66.2962 51.5495C66.5951 51.1971 66.941 50.8872 67.3242 50.6283C67.6186 50.4897 67.9286 50.3866 68.2475 50.3213C68.2475 50.3213 68.5553 49.7901 68.7122 49.7594C68.8692 49.7286 70.2049 49.4277 70.2049 49.4277C70.2049 49.4277 70.3249 49.3571 71.5499 48.2946C72.5963 47.3735 73.7596 46.8637 73.9443 47.1954C73.1984 47.5471 72.4934 47.9796 71.8422 48.485Z" fill="white"/>
<path d="M69.0114 59.291C69.0114 59.291 68.8975 59.6257 68.7036 60.2122C67.571 63.5623 63.7085 75.0465 62.6652 78.6699C61.4341 82.9227 60.9571 87.5533 55.4634 85.8491C53.2136 85.1551 52.5704 83.1868 52.7951 80.7487C52.8166 80.4816 52.8535 80.2052 52.8966 79.9258C53.4321 76.5481 55.3588 72.5132 56.8976 69.679C59.7383 64.4773 62.5636 57.5898 62.5636 57.5898L63.4131 57.814L69.0114 59.291Z" fill="#FF6F3F"/>
<g style="mix-blend-mode:multiply" opacity="0.3">
<path d="M68.7005 60.2129C67.571 63.563 63.7085 75.0472 62.6652 78.6706C61.4341 82.9234 60.9571 87.554 55.4634 85.8498C53.2136 85.1558 52.5704 83.1875 52.7951 80.7494C54.8571 83.7003 58.9966 82.2571 61.0771 75.2222C62.896 69.0901 66.9278 62.7922 68.7005 60.2129Z" fill="#4A6C8F"/>
</g>
<path d="M63.4191 57.814C62.0218 61.1242 58.8641 68.463 56.4943 72.7926C54.2845 76.8213 53.2904 78.9954 52.8965 79.9258C53.432 76.5481 55.3586 72.5132 56.8975 69.679C59.7382 64.4773 62.5635 57.5898 62.5635 57.5898L63.4191 57.814Z" fill="white"/>
<path d="M31.9465 100.613C31.9465 100.613 27.1884 101.199 25.7204 100.324C24.2523 99.4488 26.0281 98.8346 25.3018 98.0455C24.5755 97.2563 21.1408 97.3024 20.316 96.0895C19.4911 94.8766 21.7994 94.3085 20.9315 93.114C20.0636 91.9195 16.3396 92.2419 14.9485 90.3965C13.5574 88.551 16.1796 88.4528 16.8259 87.8325C17.4722 87.2122 16.5181 86.1498 14.3206 85.2777C12.1232 84.4056 10.6951 82.293 10.9567 81.5315C11.2183 80.77 13.2127 81.7741 13.4373 80.9174C13.662 80.0607 9.1532 77.205 10.4304 75.3902C11.7077 73.5754 14.9239 76.3544 16.0503 77.6164C17.1767 78.8785 15.7856 75.2674 15.9857 74.5734C16.1857 73.8794 17.8323 73.471 19.3465 77.5796C20.8607 81.6881 21.4824 82.6277 22.3749 82.2285C23.2675 81.8294 22.0979 79.6523 22.9566 79.1579C23.8153 78.6635 25.3018 80.945 25.7265 84.3442C26.1512 87.7434 27.9609 87.4394 27.9732 86.2235C27.9855 85.0075 29.6259 83.9942 30.2015 86.6196C30.777 89.245 30.2015 90.725 30.5523 91.5326C30.9032 92.3402 31.5741 90.7957 32.5159 91.026C33.4577 91.2563 33.9378 96.6698 33.9809 98.4201C34.024 100.17 31.9465 100.613 31.9465 100.613Z" fill="#F2B200"/>
<path d="M31.7924 93.6555C31.6916 93.6424 31.5898 93.6696 31.5091 93.7311C31.4283 93.7927 31.3753 93.8836 31.3615 93.9841L30.943 97.2052C30.6352 96.8183 30.3028 96.4314 29.9827 96.0506L30.2135 93.7568C30.2197 93.6576 30.1873 93.5598 30.1231 93.4838C30.0589 93.4078 29.9679 93.3593 29.8688 93.3484C29.8187 93.3433 29.768 93.3482 29.7198 93.3628C29.6715 93.3774 29.6266 93.4013 29.5877 93.4333C29.5488 93.4653 29.5166 93.5047 29.493 93.5491C29.4694 93.5936 29.4549 93.6422 29.4503 93.6923L29.2964 95.2277L28.9055 94.7671L29.0779 90.0444C29.0799 89.9941 29.072 89.944 29.0545 89.8968C29.037 89.8496 29.0103 89.8064 28.976 89.7695C28.9417 89.7327 28.9003 89.703 28.8544 89.6822C28.8085 89.6614 28.7589 89.6499 28.7086 89.6483C28.6072 89.6458 28.509 89.6829 28.4348 89.7518C28.3606 89.8207 28.3163 89.9158 28.3115 90.0168L28.173 93.8981C27.6375 93.2655 27.1061 92.6432 26.5788 92.0311L26.625 88.9605C26.625 88.8595 26.5848 88.7626 26.5132 88.6912C26.4416 88.6198 26.3445 88.5797 26.2433 88.5797C26.1421 88.5797 26.045 88.6198 25.9735 88.6912C25.9019 88.7626 25.8617 88.8595 25.8617 88.9605L25.8278 91.156L24.7137 89.8755L24.486 84.204C24.4823 84.103 24.4386 84.0076 24.3644 83.9388C24.2902 83.87 24.1917 83.8334 24.0905 83.8371C23.9893 83.8407 23.8937 83.8844 23.8247 83.9584C23.7557 84.0324 23.719 84.1307 23.7227 84.2317L23.9104 88.9543C23.3175 88.2726 22.7399 87.6145 22.1777 86.9799L21.7499 84.1365C21.7319 84.039 21.6764 83.9524 21.5954 83.8951C21.5144 83.8377 21.4141 83.8142 21.316 83.8294C21.2156 83.8453 21.1254 83.8999 21.065 83.9815C21.0046 84.063 20.9786 84.165 20.9928 84.2654L21.2452 85.942L20.1711 84.7414L19.3893 79.8376C19.3664 79.7437 19.3088 79.662 19.228 79.6087C19.1473 79.5553 19.0494 79.5343 18.9539 79.5498C18.8583 79.5653 18.7721 79.6162 18.7125 79.6923C18.6529 79.7684 18.6242 79.8641 18.6322 79.9604L19.2478 83.6912L18.0167 82.3309L17.5858 79.4721C17.5783 79.4225 17.5611 79.3749 17.5352 79.3319C17.5093 79.289 17.4751 79.2515 17.4347 79.2217C17.3942 79.1919 17.3483 79.1704 17.2995 79.1583C17.2507 79.1462 17.2 79.1438 17.1503 79.1513C17.1006 79.1587 17.0529 79.1759 17.0098 79.2018C16.9667 79.2276 16.9292 79.2617 16.8993 79.3021C16.8694 79.3424 16.8478 79.3882 16.8357 79.4369C16.8236 79.4856 16.8212 79.5362 16.8287 79.5858L17.0872 81.3145C15.136 79.1651 13.9264 77.8969 13.8926 77.8601C13.8206 77.7965 13.7274 77.7622 13.6314 77.7637C13.5353 77.7653 13.4433 77.8027 13.3734 77.8685C13.3036 77.9343 13.261 78.0239 13.254 78.1195C13.2469 78.2151 13.276 78.3099 13.3355 78.3851C13.3725 78.422 14.6312 79.7547 16.6533 81.9717L15.0067 81.7383C14.957 81.7309 14.9063 81.7334 14.8575 81.7456C14.8088 81.7578 14.7629 81.7795 14.7226 81.8095C14.6822 81.8395 14.6482 81.8771 14.6225 81.9202C14.5968 81.9633 14.5799 82.0111 14.5728 82.0607C14.5595 82.1611 14.5863 82.2627 14.6473 82.3436C14.7083 82.4246 14.7986 82.4785 14.899 82.4937L17.4596 82.8591L18.8107 84.3483L15.4745 83.768C15.3745 83.7509 15.2718 83.7741 15.189 83.8326C15.1062 83.891 15.05 83.9799 15.0329 84.0797C15.0157 84.1794 15.039 84.2819 15.0976 84.3645C15.1562 84.4472 15.2453 84.5032 15.3453 84.5203L19.6109 85.2511L20.842 86.6176L18.7769 86.3105C18.7272 86.3034 18.6765 86.3062 18.6279 86.3187C18.5793 86.3311 18.5336 86.353 18.4934 86.3831C18.4533 86.4132 18.4194 86.4509 18.3939 86.494C18.3683 86.5371 18.3515 86.5848 18.3445 86.6344C18.3374 86.684 18.3402 86.7345 18.3527 86.7831C18.3652 86.8316 18.3871 86.8772 18.4172 86.9173C18.4474 86.9573 18.4852 86.9911 18.5284 87.0166C18.5716 87.0421 18.6194 87.0588 18.6692 87.0659L21.6176 87.5142L23.4642 89.6299L18.9 89.5255C18.8039 89.5314 18.7135 89.5731 18.6467 89.6424C18.5799 89.7116 18.5416 89.8033 18.5392 89.8993C18.5369 89.9954 18.5708 90.0888 18.6342 90.1611C18.6975 90.2335 18.7858 90.2795 18.8815 90.2901L24.1444 90.4129L25.4062 91.8653L23.1441 92.0649C23.0429 92.0739 22.9494 92.1226 22.8842 92.2003C22.8189 92.278 22.7873 92.3785 22.7963 92.4794C22.8053 92.5804 22.8541 92.6737 22.932 92.7388C23.01 92.8038 23.1106 92.8354 23.2118 92.8264L26.0187 92.5777C26.5788 93.2307 27.1461 93.896 27.7206 94.5736L23.8089 94.7978C23.7077 94.8035 23.6129 94.8491 23.5453 94.9245C23.4778 94.9999 23.4431 95.099 23.4488 95.2C23.4545 95.301 23.5002 95.3956 23.5758 95.463C23.6514 95.5304 23.7508 95.565 23.852 95.5593L28.3362 95.3044L28.7793 95.8326L27.1943 95.894C27.1442 95.896 27.095 95.9079 27.0495 95.9289C27.0039 95.9499 26.963 95.9796 26.929 96.0164C26.895 96.0532 26.8686 96.0963 26.8513 96.1432C26.8339 96.1902 26.8261 96.2401 26.8281 96.2901C26.8301 96.3401 26.842 96.3892 26.863 96.4347C26.8841 96.4801 26.9139 96.5209 26.9507 96.5549C26.9876 96.5888 27.0308 96.6151 27.0779 96.6324C27.125 96.6497 27.175 96.6575 27.2251 96.6555L29.401 96.5726L30.469 97.8346L27.3913 98.2215C27.2973 98.2421 27.2143 98.297 27.1589 98.3756C27.1035 98.4541 27.0796 98.5506 27.092 98.6458C27.1044 98.7411 27.1521 98.8283 27.2257 98.8901C27.2994 98.952 27.3936 98.9841 27.4898 98.98L31.0599 98.5317L32.291 100.018C32.3437 100.083 32.4168 100.13 32.4987 100.149C32.5806 100.169 32.6668 100.16 32.7434 100.125C32.7744 100.112 32.8034 100.094 32.8296 100.073C32.9079 100.009 32.9577 99.9165 32.9681 99.8158C32.9784 99.7152 32.9486 99.6146 32.885 99.5358L31.6385 98.0005L32.1494 94.07C32.1545 94.0192 32.1491 93.9678 32.1337 93.9191C32.1183 93.8704 32.0932 93.8253 32.0598 93.7865C32.0265 93.7478 31.9855 93.7162 31.9396 93.6937C31.8936 93.6711 31.8435 93.6581 31.7924 93.6555Z" fill="#D79F04"/>
<path d="M33.5472 99.1168C33.5472 99.1168 30.4079 96.258 30.1617 94.7626C29.9155 93.2672 31.3466 94.1147 31.4574 93.1689C31.5682 92.2232 29.5616 89.9448 29.9186 88.6889C30.2756 87.433 31.9776 88.6582 32.2853 87.39C32.5931 86.1218 30.2264 83.8004 30.6695 81.8014C31.1127 79.8024 32.6885 81.4943 33.4826 81.5864C34.2766 81.6786 34.452 80.4165 33.7657 78.4298C33.0794 76.4431 33.6857 74.2721 34.3535 74.005C35.0214 73.7379 35.4892 75.6632 36.2001 75.3254C36.9111 74.9876 36.2371 70.3049 38.2068 70.1053C40.1765 69.9057 40.1457 73.6826 39.9426 75.1688C39.7395 76.655 41.3768 73.6335 41.9616 73.3694C42.5463 73.1053 43.7651 73.9835 41.8692 77.3612C39.9734 80.7389 39.6902 81.7062 40.475 82.0747C41.2599 82.4432 42.057 80.4042 42.8756 80.7052C43.6943 81.0061 43.0203 83.3121 40.9613 85.5506C38.9023 87.7892 40.1611 88.8362 40.989 88.1423C41.8169 87.4483 43.4512 87.9673 42.0077 89.8711C40.5643 91.7749 39.2378 92.2262 38.887 92.9417C38.5361 93.6572 39.9734 93.2027 40.3642 93.9704C40.7551 94.738 37.3727 98.1802 36.2155 99.2181C35.0583 100.256 33.5472 99.1168 33.5472 99.1168Z" fill="#F2B200"/>
<path d="M38.1635 94.9993C38.1139 94.9242 38.0365 94.8718 37.9483 94.8534C37.8601 94.835 37.7682 94.8521 37.6926 94.901L35.2766 96.4762C35.3536 96.0371 35.4305 95.6011 35.5044 95.1651L37.1817 93.9982C37.2183 93.9728 37.2495 93.9405 37.2736 93.903C37.2976 93.8656 37.314 93.8238 37.3219 93.78C37.3298 93.7363 37.3289 93.6914 37.3194 93.6479C37.3098 93.6045 37.2918 93.5634 37.2664 93.5269C37.2409 93.4904 37.2085 93.4592 37.171 93.4352C37.1334 93.4113 37.0915 93.3949 37.0477 93.387C37.0038 93.3792 36.9588 93.38 36.9153 93.3895C36.8718 93.3991 36.8305 93.417 36.7939 93.4424L35.6614 94.2285C35.6891 94.0535 35.7198 93.8785 35.7475 93.7004L39.0376 91.0934C39.1003 91.0348 39.1385 90.9548 39.1447 90.8693C39.1509 90.7838 39.1246 90.6991 39.0711 90.6321C39.0175 90.5651 38.9406 90.5207 38.8557 90.5077C38.7707 90.4948 38.6841 90.5142 38.6129 90.5622L35.9106 92.7116C36.0297 91.9869 36.1446 91.2705 36.2553 90.5622L38.3482 88.8303C38.3825 88.8019 38.4109 88.767 38.4318 88.7276C38.4526 88.6882 38.4655 88.6451 38.4696 88.6008C38.4737 88.5565 38.4691 88.5117 38.4559 88.4692C38.4427 88.4266 38.4213 88.3871 38.3928 88.3528C38.3643 88.3185 38.3293 88.2902 38.2899 88.2694C38.2504 88.2486 38.2072 88.2358 38.1627 88.2317C38.1183 88.2275 38.0735 88.2322 38.0308 88.2453C37.9882 88.2585 37.9486 88.2799 37.9142 88.3083L36.4092 89.5519C36.4862 89.0514 36.5631 88.5539 36.637 88.0657L40.3302 84.6419C40.3963 84.5809 40.4354 84.4961 40.4389 84.4062C40.4423 84.3164 40.4099 84.2289 40.3487 84.1629C40.2874 84.097 40.2025 84.058 40.1124 84.0545C40.0224 84.051 39.9347 84.0834 39.8685 84.1445L36.7909 86.9941C36.9078 86.2049 37.0186 85.4342 37.1233 84.6911L38.7944 82.7688C38.8237 82.7354 38.8461 82.6965 38.8604 82.6544C38.8746 82.6123 38.8804 82.5678 38.8774 82.5234C38.8744 82.4791 38.8627 82.4358 38.8429 82.396C38.8231 82.3561 38.7957 82.3206 38.7621 82.2914C38.7286 82.2621 38.6896 82.2398 38.6474 82.2256C38.6052 82.2114 38.5606 82.2056 38.5161 82.2086C38.4717 82.2116 38.4283 82.2233 38.3884 82.243C38.3485 82.2627 38.3128 82.2901 38.2835 82.3236L37.2925 83.4597C37.3602 82.9746 37.4249 82.5017 37.4864 82.0442L40.3394 78.6665C40.3957 78.5978 40.4227 78.5099 40.4146 78.4216C40.4065 78.3333 40.3639 78.2518 40.296 78.1945C40.2281 78.1373 40.1404 78.109 40.0518 78.1157C39.9632 78.1224 39.8808 78.1636 39.8224 78.2304L37.668 80.7883C37.7419 80.2233 37.8127 79.6859 37.8773 79.1792L39.5577 77.2417C39.5917 77.2088 39.6185 77.1692 39.6364 77.1255C39.6543 77.0817 39.6629 77.0348 39.6616 76.9875C39.6603 76.9403 39.6492 76.8939 39.629 76.8511C39.6088 76.8084 39.5799 76.7704 39.5441 76.7394C39.5083 76.7084 39.4665 76.6852 39.4213 76.6712C39.376 76.6572 39.3284 76.6527 39.2813 76.6581C39.2343 76.6635 39.1889 76.6785 39.148 76.7023C39.1071 76.7262 39.0716 76.7582 39.0437 76.7964L38.0281 77.9663C38.3359 75.4238 38.5144 73.8732 38.5174 73.8302C38.5223 73.786 38.5184 73.7413 38.5059 73.6987C38.4935 73.6561 38.4727 73.6163 38.4449 73.5816C38.417 73.547 38.3826 73.5182 38.3435 73.4968C38.3045 73.4754 38.2616 73.4619 38.2174 73.4571C38.1731 73.4523 38.1283 73.4562 38.0856 73.4686C38.0428 73.481 38.003 73.5017 37.9683 73.5295C37.9335 73.5573 37.9046 73.5917 37.8832 73.6306C37.8618 73.6696 37.8483 73.7123 37.8434 73.7565C37.8434 73.8025 37.6618 75.4177 37.3325 78.0554L36.5416 76.8271C36.493 76.7518 36.4164 76.6988 36.3287 76.6798C36.241 76.6608 36.1493 76.6774 36.0738 76.7258C35.9984 76.7743 35.9452 76.8505 35.9256 76.9378C35.906 77.0251 35.9217 77.1166 35.9691 77.1925L37.2002 79.124C37.1304 79.6787 37.0545 80.2673 36.9724 80.8896L35.4336 78.3379C35.4111 78.2994 35.3811 78.2659 35.3454 78.2391C35.3098 78.2124 35.2691 78.193 35.2258 78.1821C35.1825 78.1713 35.1375 78.1691 35.0934 78.1758C35.0493 78.1825 35.0069 78.198 34.9689 78.2212C34.9307 78.244 34.8973 78.274 34.8707 78.3096C34.8442 78.3453 34.8249 78.3858 34.814 78.4288C34.8032 78.4719 34.8009 78.5167 34.8074 78.5606C34.8139 78.6046 34.829 78.6468 34.8519 78.6849L36.8186 81.9705C36.7467 82.4925 36.6729 83.0299 36.597 83.5826L35.609 82.0257C35.5874 81.9836 35.5572 81.9465 35.5204 81.9166C35.4836 81.8868 35.4409 81.865 35.3952 81.8525C35.3494 81.84 35.3016 81.8371 35.2547 81.8441C35.2078 81.8511 35.1628 81.8677 35.1227 81.893C35.0826 81.9182 35.0482 81.9515 35.0217 81.9908C34.9952 82.03 34.9772 82.0744 34.9688 82.1209C34.9604 82.1675 34.9618 82.2153 34.973 82.2613C34.9841 82.3073 35.0047 82.3505 35.0335 82.3881L36.4523 84.6204C36.3415 85.4157 36.2215 86.2417 36.0984 87.077L33.547 83.9541C33.4894 83.8846 33.4065 83.8407 33.3165 83.8321C33.2265 83.8235 33.1367 83.8508 33.0669 83.9081C33.0325 83.9363 33.004 83.9709 32.9831 84.0101C32.9621 84.0493 32.9491 84.0923 32.9448 84.1365C32.9406 84.1807 32.945 84.2253 32.9581 84.2678C32.9711 84.3103 32.9924 84.3497 33.0207 84.384L35.9722 87.992C35.8901 88.5447 35.805 89.1067 35.7168 89.6778L34.2764 88.2715C34.2445 88.2404 34.2067 88.2159 34.1653 88.1994C34.1239 88.1829 34.0796 88.1747 34.0351 88.1753C33.9905 88.1759 33.9464 88.1852 33.9055 88.2028C33.8645 88.2203 33.8274 88.2457 33.7963 88.2776C33.7652 88.3094 33.7406 88.3471 33.7241 88.3884C33.7076 88.4297 33.6993 88.4739 33.6999 88.5184C33.7005 88.5629 33.7098 88.6068 33.7274 88.6477C33.745 88.6885 33.7705 88.7256 33.8024 88.7566L35.5875 90.5007C35.4705 91.252 35.3485 92.0166 35.2212 92.7945L32.8176 90.2919C32.7535 90.2344 32.67 90.2031 32.5839 90.2044C32.4977 90.2057 32.4152 90.2395 32.3529 90.2989C32.2906 90.3583 32.2531 90.4391 32.248 90.5249C32.2428 90.6107 32.2704 90.6953 32.3251 90.7617L35.0951 93.6297L34.9935 94.2439L34.0394 93.2152C33.9782 93.1492 33.8932 93.1102 33.8032 93.1068C33.7131 93.1033 33.6254 93.1357 33.5593 93.1968C33.4932 93.2579 33.4541 93.3426 33.4506 93.4325C33.4472 93.5223 33.4796 93.6098 33.5408 93.6758L34.8519 95.0883L34.6026 96.5346L32.556 94.6922C32.489 94.6319 32.4009 94.6007 32.3108 94.6053C32.2208 94.6099 32.1363 94.65 32.0759 94.7167C32.0155 94.7835 31.9841 94.8715 31.9887 94.9613C31.9933 95.0512 32.0335 95.1355 32.1005 95.1958L34.4611 97.3452C34.3626 97.9 34.26 98.4568 34.1533 99.0157C34.1398 99.0891 34.1509 99.165 34.1848 99.2315C34.2187 99.2981 34.2736 99.3517 34.341 99.3841C34.3686 99.3966 34.3975 99.4058 34.4272 99.4118C34.5157 99.427 34.6066 99.4069 34.6804 99.3557C34.7541 99.3046 34.8047 99.2266 34.8211 99.1385C34.9258 98.5632 35.0284 97.9911 35.1289 97.422L38.0773 95.4998C38.118 95.4743 38.1529 95.4406 38.1796 95.4008C38.2064 95.3609 38.2244 95.316 38.2325 95.2687C38.2406 95.2215 38.2387 95.1731 38.2268 95.1266C38.2149 95.0802 38.1934 95.0368 38.1635 94.9993Z" fill="#D79F04"/>
<path d="M33.1717 99.4329C33.1717 99.4329 28.8629 102.12 27.044 101.926C25.2251 101.733 26.6747 100.354 25.6191 99.9181C24.5634 99.4821 21.2795 101.057 19.9407 100.259C18.6019 99.4606 20.5563 97.8792 19.2021 97.1146C17.8479 96.35 14.3886 98.3183 12.2219 97.1607C10.0552 96.003 12.5297 94.744 12.8836 93.8536C13.2375 92.9631 11.8464 92.3612 9.32888 92.5086C6.81133 92.656 4.49691 91.2527 4.40458 90.396C4.31225 89.5393 6.68822 89.6283 6.52511 88.7133C6.36199 87.7982 0.735985 87.0459 1.14532 84.7214C1.55465 82.397 5.90649 83.6467 7.55921 84.3622C9.21192 85.0776 6.25427 82.2127 6.13732 81.4573C6.02037 80.702 7.41148 79.5781 10.72 82.8575C14.0285 86.137 15.0287 86.7726 15.7181 85.9896C16.4075 85.2066 14.2993 83.6283 14.9118 82.7839C15.5243 81.9394 17.9741 83.4625 19.8915 86.5546C21.8089 89.6468 23.4277 88.5413 22.8953 87.3653C22.3629 86.1892 23.4924 84.4789 25.222 86.7511C26.9517 89.0234 27.044 90.7154 27.7611 91.3356C28.4782 91.9559 28.4136 90.1688 29.4261 89.9692C30.4387 89.7696 33.3256 94.7747 34.1473 96.4421C34.9691 98.1095 33.1717 99.4329 33.1717 99.4329Z" fill="#46CD80"/>
<path d="M29.9089 92.795C29.8059 92.8275 29.7199 92.8993 29.6697 92.9948C29.6196 93.0903 29.6093 93.2017 29.6411 93.3047L30.6814 96.5934L29.238 95.9086L28.4316 93.5995C28.414 93.5491 28.3867 93.5026 28.3511 93.4628C28.3155 93.4229 28.2724 93.3905 28.2243 93.3672C28.1761 93.344 28.1238 93.3304 28.0704 93.3273C28.017 93.3243 27.9635 93.3317 27.913 93.3492C27.8625 93.3668 27.8159 93.3941 27.776 93.4296C27.736 93.4651 27.7035 93.5081 27.6802 93.5561C27.6569 93.6042 27.6433 93.6563 27.6402 93.7096C27.6371 93.7629 27.6446 93.8162 27.6622 93.8667L28.2069 95.4235L27.6252 95.1533L25.6771 90.5258C25.6329 90.4314 25.554 90.3576 25.4568 90.3198C25.3596 90.2819 25.2515 90.2827 25.1549 90.3222C25.0583 90.3617 24.9807 90.4368 24.9381 90.5319C24.8955 90.6269 24.8912 90.7347 24.9261 90.8328L26.5296 94.6343C25.7294 94.2617 24.9395 93.8984 24.1598 93.5442L22.8333 90.5841C22.8115 90.5355 22.7803 90.4917 22.7415 90.4552C22.7027 90.4186 22.657 90.39 22.6072 90.371C22.5573 90.3521 22.5042 90.3431 22.4508 90.3446C22.3975 90.3462 22.3449 90.3581 22.2962 90.3799C22.2475 90.4017 22.2036 90.4328 22.167 90.4715C22.1303 90.5103 22.1017 90.5558 22.0827 90.6055C22.0637 90.6553 22.0547 90.7083 22.0562 90.7615C22.0577 90.8148 22.0697 90.8672 22.0916 90.9157L23.0426 93.0406L21.396 92.3006L18.6261 86.9362C18.5767 86.8405 18.4913 86.7683 18.3885 86.7355C18.2858 86.7026 18.1742 86.7119 18.0783 86.7612C17.9824 86.8104 17.91 86.8957 17.8771 86.9982C17.8442 87.1007 17.8535 87.212 17.9028 87.3077L20.1988 91.7694L17.6412 90.6425L15.9608 88.0938C15.9012 88.0038 15.8083 87.9411 15.7024 87.9195C15.5964 87.898 15.4863 87.9192 15.3961 87.9787C15.3059 88.0381 15.243 88.1309 15.2214 88.2366C15.1998 88.3422 15.2211 88.4522 15.2807 88.5421L16.2747 90.0468L14.7021 89.3651L11.7352 84.9925C11.6677 84.9239 11.5779 84.8814 11.482 84.8728C11.386 84.8641 11.2901 84.8897 11.2114 84.945C11.1326 85.0004 11.0761 85.0818 11.052 85.1749C11.0278 85.268 11.0376 85.3666 11.0796 85.4531L13.3325 88.7786L11.5382 88.0171L9.84855 85.4561C9.78937 85.3661 9.69678 85.3033 9.59116 85.2814C9.48554 85.2595 9.37553 85.2804 9.28533 85.3395C9.19513 85.3985 9.13214 85.4909 9.11021 85.5962C9.08827 85.7016 9.1092 85.8114 9.16838 85.9014L10.1932 87.4367C7.35562 86.2514 5.61673 85.5544 5.57672 85.536C5.52721 85.5158 5.47421 85.5056 5.42073 85.5059C5.36725 85.5061 5.31436 85.5169 5.26506 85.5376C5.21576 85.5583 5.17103 85.5884 5.13341 85.6263C5.09579 85.6643 5.06603 85.7092 5.04582 85.7586C5.02561 85.808 5.01535 85.8609 5.01563 85.9142C5.01591 85.9676 5.02671 86.0204 5.04743 86.0695C5.06815 86.1187 5.09838 86.1634 5.13639 86.2009C5.1744 86.2384 5.21944 86.2681 5.26895 86.2883C5.3182 86.3098 7.13095 87.0314 10.0701 88.2658L8.38049 88.7724C8.32936 88.7878 8.28176 88.813 8.2404 88.8467C8.19905 88.8803 8.16474 88.9218 8.13945 88.9687C8.11416 89.0156 8.09837 89.067 8.093 89.12C8.08762 89.173 8.09276 89.2265 8.10812 89.2776C8.12347 89.3286 8.14875 89.3761 8.18251 89.4173C8.21626 89.4586 8.25783 89.4928 8.30484 89.5181C8.35186 89.5433 8.40339 89.559 8.4565 89.5644C8.50962 89.5698 8.56327 89.5646 8.61439 89.5493L11.2458 88.7602L13.2125 89.5954L9.76853 90.5166C9.71699 90.5305 9.66871 90.5544 9.62644 90.5869C9.58417 90.6194 9.54873 90.66 9.52215 90.7062C9.49558 90.7523 9.47838 90.8033 9.47154 90.8561C9.4647 90.9089 9.46836 90.9626 9.4823 91.014C9.49625 91.0654 9.5202 91.1136 9.5528 91.1558C9.58541 91.198 9.62602 91.2333 9.67232 91.2598C9.71861 91.2863 9.76969 91.3035 9.82264 91.3103C9.87558 91.3171 9.92935 91.3135 9.98089 91.2996L14.4158 90.102L16.1978 90.8912L14.0773 91.5237C14.026 91.5389 13.9781 91.5639 13.9365 91.5975C13.8949 91.6311 13.8603 91.6725 13.8347 91.7194C13.8091 91.7663 13.7931 91.8178 13.7874 91.8709C13.7818 91.924 13.7867 91.9776 13.8018 92.0289C13.817 92.0801 13.8421 92.1278 13.8757 92.1693C13.9094 92.2109 13.9509 92.2454 13.9979 92.2709C14.0449 92.2964 14.0965 92.3124 14.1497 92.3181C14.203 92.3237 14.2568 92.3188 14.3081 92.3037L17.3489 91.3825L20.0911 92.5923L15.6438 94.5268C15.5928 94.5466 15.5464 94.5764 15.5072 94.6145C15.4681 94.6526 15.437 94.6982 15.4159 94.7485C15.3948 94.7989 15.3842 94.8529 15.3846 94.9075C15.3849 94.9621 15.3963 95.016 15.4181 95.066C15.4399 95.1161 15.4716 95.1613 15.5112 95.1988C15.5509 95.2364 15.5978 95.2655 15.649 95.2846C15.7003 95.3036 15.7549 95.3121 15.8095 95.3096C15.8641 95.3071 15.9177 95.2936 15.967 95.2699L21.0944 93.0437L22.9595 93.882L20.8697 95.0826C20.7738 95.1364 20.7032 95.2259 20.6735 95.3316C20.6438 95.4373 20.6574 95.5504 20.7112 95.6461C20.7651 95.7418 20.8549 95.8122 20.9608 95.8419C21.0667 95.8715 21.1801 95.858 21.276 95.8042L23.8705 94.315C24.7014 94.6957 25.5478 95.0826 26.4003 95.4787L22.7317 97.4378C22.6846 97.463 22.643 97.4972 22.6092 97.5385C22.5753 97.5798 22.55 97.6273 22.5345 97.6783C22.5191 97.7293 22.5139 97.7829 22.5192 97.836C22.5245 97.889 22.5403 97.9405 22.5655 97.9875C22.5908 98.0344 22.6251 98.076 22.6664 98.1098C22.7078 98.1435 22.7554 98.1688 22.8066 98.1842C22.8577 98.1996 22.9114 98.2048 22.9646 98.1995C23.0178 98.1942 23.0694 98.1785 23.1164 98.1533L27.3236 95.9086L27.9884 96.2157L26.4865 96.9803C26.439 97.0047 26.3968 97.0382 26.3623 97.0788C26.3278 97.1195 26.3016 97.1666 26.2853 97.2173C26.269 97.2681 26.2629 97.3215 26.2673 97.3747C26.2718 97.4278 26.2866 97.4795 26.3111 97.5269C26.3355 97.5742 26.3691 97.6164 26.4099 97.6508C26.4506 97.6852 26.4978 97.7113 26.5487 97.7276C26.5995 97.7438 26.6531 97.7499 26.7063 97.7455C26.7596 97.7411 26.8114 97.7263 26.8589 97.7019L28.9302 96.6548L30.5213 97.4132L27.6991 99.1635C27.6077 99.2205 27.5427 99.3114 27.5185 99.4162C27.4942 99.521 27.5127 99.6312 27.5698 99.7224C27.627 99.8136 27.7181 99.8784 27.8231 99.9026C27.9282 99.9268 28.0386 99.9084 28.13 99.8513L31.3923 97.8278C32.0079 98.1349 32.6234 98.4174 33.2389 98.7183C33.3196 98.7573 33.4109 98.7688 33.4987 98.751C33.5865 98.7333 33.6661 98.6873 33.7252 98.62C33.7472 98.5927 33.7658 98.5628 33.7806 98.531C33.8043 98.4832 33.8183 98.4312 33.8219 98.378C33.8254 98.3248 33.8184 98.2715 33.8013 98.221C33.7841 98.1705 33.7572 98.1239 33.7219 98.0838C33.6867 98.0437 33.6439 98.011 33.596 97.9875L31.7124 97.0663L30.4475 93.0529C30.4306 92.9996 30.403 92.9504 30.3664 92.9081C30.3297 92.8659 30.2847 92.8317 30.2342 92.8075C30.1837 92.7833 30.1288 92.7697 30.0728 92.7676C30.0169 92.7654 29.9611 92.7748 29.9089 92.795Z" fill="#25B763"/>
<path d="M31.8295 99.5261C31.8295 99.5261 27.1514 97.524 26.2897 95.9365C25.4279 94.3489 27.373 94.7359 27.1299 93.6212C26.8868 92.5066 23.6983 90.7194 23.5875 89.1657C23.4767 87.6119 25.905 88.3243 25.7419 86.7644C25.5787 85.2045 22.0086 83.5218 21.7224 81.0653C21.4362 78.6088 23.8768 79.9353 24.8216 79.7173C25.7665 79.4993 25.4556 78.0161 23.8983 76.0325C22.341 74.0489 22.1594 71.3774 22.8181 70.8093C23.4767 70.2413 24.757 72.2403 25.4156 71.5862C26.0742 70.9322 23.4767 65.8932 25.628 64.8953C27.7793 63.8973 29.2381 68.1686 29.592 69.9434C29.946 71.7182 30.6077 67.6466 31.1647 67.1153C31.7218 66.5841 33.4391 67.0846 32.6328 71.6691C31.8264 76.2536 31.8818 77.4389 32.9159 77.5494C33.95 77.66 34.0485 75.0407 35.0888 75.0591C36.129 75.0775 36.2829 77.9517 34.8364 81.2895C33.3899 84.6273 35.2242 85.3212 35.8859 84.2127C36.5476 83.1042 38.6004 83.049 37.7325 85.7695C36.8646 88.4901 35.5166 89.5219 35.415 90.4646C35.3135 91.4073 36.7477 90.3325 37.4894 91.048C38.2311 91.7635 35.7659 96.9866 34.8641 98.6141C33.9623 100.242 31.8295 99.5261 31.8295 99.5261Z" fill="#46CD80"/>
<path d="M35.424 93.0618C35.3391 92.996 35.2314 92.9665 35.1247 92.9797C35.0179 92.993 34.9208 93.0479 34.8546 93.1324L32.7403 95.8653C32.6541 95.3372 32.5679 94.8152 32.4787 94.2932L33.919 92.3126C33.9827 92.2254 34.009 92.1166 33.9923 92.0101C33.9756 91.9036 33.9171 91.808 33.8298 91.7445C33.7424 91.681 33.6334 91.6547 33.5266 91.6714C33.4198 91.6881 33.3241 91.7464 33.2604 91.8336L32.2909 93.1724L32.1801 92.5398L34.8731 88.2992C34.9306 88.208 34.9495 88.0978 34.9256 87.9927C34.9016 87.8876 34.8368 87.7963 34.7454 87.7388C34.6539 87.6814 34.5434 87.6626 34.4381 87.6865C34.3327 87.7104 34.2412 87.7751 34.1837 87.8663L31.9739 91.3484C31.82 90.4855 31.6661 89.6288 31.5153 88.7875L33.1988 86.0055C33.2547 85.9134 33.2717 85.803 33.246 85.6985C33.2204 85.594 33.1541 85.5039 33.0619 85.4481C32.9696 85.3924 32.859 85.3754 32.7542 85.401C32.6495 85.4267 32.5592 85.4928 32.5033 85.5848L31.2937 87.5838C31.183 86.984 31.0722 86.3934 30.9614 85.812L33.7959 80.4875C33.8465 80.3922 33.8571 80.2808 33.8254 80.1777C33.7936 80.0746 33.7221 79.9883 33.6266 79.9379C33.5311 79.8874 33.4194 79.8768 33.3161 79.9085C33.2128 79.9401 33.1263 80.0115 33.0757 80.1067L30.7182 84.5377C30.5366 83.5981 30.3612 82.6953 30.1858 81.8017L31.3214 78.9706C31.3551 78.872 31.3496 78.7642 31.3062 78.6694C31.2629 78.5747 31.1848 78.5 31.0881 78.4608C30.9913 78.4215 30.8832 78.4207 30.7858 78.4584C30.6885 78.4961 30.6092 78.5695 30.5643 78.6635L29.8934 80.3401C29.7806 79.7628 29.6677 79.203 29.5549 78.6605L31.4569 73.7474C31.4761 73.6976 31.4852 73.6445 31.4839 73.5912C31.4825 73.5379 31.4706 73.4853 31.4489 73.4365C31.4272 73.3878 31.3961 73.3438 31.3573 73.307C31.3185 73.2703 31.2729 73.2415 31.223 73.2223C31.173 73.2032 31.1198 73.194 31.0664 73.1954C31.0129 73.1968 30.9602 73.2086 30.9114 73.2303C30.8625 73.2519 30.8184 73.283 30.7816 73.3217C30.7447 73.3604 30.7159 73.4059 30.6967 73.4557L29.2379 77.1927C29.1004 76.5274 28.968 75.8928 28.8408 75.2889L29.9796 72.4393C29.9998 72.3897 30.01 72.3366 30.0096 72.2831C30.0093 72.2296 29.9984 72.1766 29.9775 72.1273C29.9567 72.078 29.9263 72.0332 29.8881 71.9956C29.8499 71.958 29.8046 71.9283 29.7549 71.9081C29.7052 71.8879 29.652 71.8777 29.5983 71.8781C29.5447 71.8785 29.4916 71.8893 29.4422 71.9102C29.3927 71.931 29.3479 71.9613 29.3102 71.9994C29.2725 72.0375 29.2427 72.0827 29.2225 72.1323L28.5361 73.8549C27.8898 70.8549 27.4682 69.0309 27.459 68.9818C27.4349 68.8767 27.37 68.7855 27.2785 68.7282C27.187 68.6709 27.0764 68.6522 26.9711 68.6762C26.8658 68.7003 26.7744 68.765 26.717 68.8563C26.6596 68.9476 26.6408 69.0579 26.6649 69.1629C26.6649 69.2151 27.1173 71.1128 27.7821 74.2264L26.4002 73.1302C26.3152 73.0639 26.2073 73.0338 26.1001 73.0464C25.9929 73.0591 25.895 73.1135 25.8278 73.1978C25.7946 73.2394 25.7699 73.2872 25.7553 73.3383C25.7407 73.3895 25.7365 73.4431 25.7428 73.4959C25.7491 73.5487 25.7658 73.5998 25.792 73.6461C25.8182 73.6925 25.8534 73.7332 25.8955 73.7658L28.0499 75.4701C28.1884 76.1241 28.3361 76.8242 28.4869 77.5581L25.7539 75.2674C25.671 75.2111 25.5703 75.1874 25.4709 75.2008C25.3716 75.2143 25.2808 75.2638 25.2159 75.34C25.1509 75.4162 25.1166 75.5136 25.1193 75.6136C25.122 75.7136 25.1617 75.809 25.2307 75.8815L28.7516 78.8294C28.8767 79.4435 29.005 80.0791 29.1363 80.7362L27.4036 79.3636C27.3617 79.3304 27.3137 79.3057 27.2623 79.2909C27.2109 79.2761 27.1571 79.2716 27.1039 79.2776C27.0508 79.2836 26.9993 79.3 26.9525 79.3258C26.9057 79.3516 26.8645 79.3864 26.8311 79.4281C26.7978 79.4699 26.773 79.5177 26.7582 79.569C26.7434 79.6203 26.7389 79.674 26.7449 79.7271C26.7509 79.7801 26.7673 79.8314 26.7932 79.8781C26.8191 79.9248 26.8539 79.966 26.8957 79.9993L29.3917 81.986C29.5785 82.9317 29.7693 83.9103 29.9642 84.9215L25.8309 82.3852C25.7391 82.3315 25.6299 82.3158 25.5267 82.3416C25.4236 82.3673 25.3346 82.4324 25.279 82.5229C25.2234 82.6133 25.2056 82.7219 25.2293 82.8254C25.2531 82.9288 25.3166 83.0188 25.4061 83.0761L30.1612 85.9963C30.2873 86.6564 30.4105 87.3259 30.5366 88.0045L28.3546 86.9789C28.257 86.9329 28.1451 86.9274 28.0436 86.9637C27.942 86.9999 27.859 87.075 27.8129 87.1723C27.7668 87.2696 27.7613 87.3812 27.7977 87.4826C27.834 87.584 27.9092 87.6667 28.0068 87.7127L30.7151 88.984C30.8783 89.8837 31.0414 90.7988 31.2045 91.723L27.5113 89.8376C27.415 89.7888 27.3031 89.7801 27.2004 89.8135C27.0977 89.8469 27.0124 89.9196 26.9634 90.0157C26.9145 90.1118 26.9058 90.2234 26.9392 90.3259C26.9727 90.4284 27.0456 90.5135 27.142 90.5623L31.3922 92.7333C31.4353 92.9728 31.4753 93.2123 31.5184 93.4549L30.0319 92.6626C29.9848 92.6374 29.9332 92.6217 29.88 92.6164C29.8269 92.6111 29.7732 92.6163 29.722 92.6317C29.6187 92.6628 29.532 92.7336 29.481 92.8285C29.43 92.9233 29.4188 93.0345 29.45 93.1376C29.4812 93.2407 29.5521 93.3272 29.6472 93.3781L31.6877 94.4651C31.7862 95.0393 31.8816 95.6197 31.977 96.2L28.9301 94.8827C28.88 94.8563 28.825 94.8406 28.7685 94.8366C28.7119 94.8327 28.6552 94.8405 28.6019 94.8597C28.5487 94.879 28.5 94.9091 28.4591 94.9482C28.4182 94.9872 28.3859 95.0344 28.3643 95.0867C28.3428 95.139 28.3324 95.1952 28.3339 95.2517C28.3354 95.3082 28.3487 95.3637 28.373 95.4148C28.3973 95.4658 28.432 95.5113 28.475 95.5481C28.5179 95.585 28.5681 95.6125 28.6223 95.6289L32.1401 97.1274C32.2478 97.7937 32.3525 98.4662 32.4479 99.1356C32.4614 99.224 32.5037 99.3055 32.5682 99.3677C32.6327 99.4298 32.7158 99.4691 32.8049 99.4795C32.8406 99.4841 32.8768 99.4841 32.9126 99.4795C32.9654 99.4713 33.016 99.4527 33.0616 99.425C33.1071 99.3972 33.1468 99.3607 33.1782 99.3177C33.2097 99.2746 33.2323 99.2258 33.2448 99.174C33.2573 99.1222 33.2595 99.0684 33.2512 99.0158C33.1434 98.328 33.0357 97.6371 32.9249 96.9523L35.504 93.6207C35.5669 93.5357 35.5937 93.4295 35.5788 93.3249C35.5638 93.2203 35.5082 93.1258 35.424 93.0618Z" fill="#25B763"/>
<mask id="mask0_6616_4501" style="mask-type:luminance" maskUnits="userSpaceOnUse" x="100" y="75" width="37" height="27">
<path d="M117.229 75.3066H119.999C124.508 75.3066 128.832 77.0937 132.02 80.2748C135.209 83.4558 137 87.7702 137 92.2689C137 94.7284 136.021 97.0871 134.278 98.8262C132.535 100.565 130.17 101.542 127.705 101.542H109.516C107.051 101.542 104.687 100.565 102.944 98.8262C101.201 97.0871 100.222 94.7284 100.222 92.2689C100.222 90.0409 100.662 87.8347 101.516 85.7763C102.371 83.718 103.624 81.8478 105.203 80.2726C106.783 78.6974 108.658 77.4481 110.721 76.5961C112.784 75.744 114.996 75.3058 117.229 75.3066Z" fill="white"/>
</mask>
<g mask="url(#mask0_6616_4501)">
<path d="M116.663 99.4864C116.663 99.4864 113.81 101.022 112.662 97.4629C111.514 93.904 113.958 91.5396 116.971 90.5539C119.984 89.5682 122.298 83.78 125.804 83.9489C129.309 84.1178 126.681 89.4485 125.496 92.731C124.311 96.0135 124.209 99.0412 122.837 100.696C121.464 102.351 117.971 102.947 116.663 99.4864Z" fill="#2F3567"/>
<path d="M125.527 88.14C125.499 88.065 125.443 88.0037 125.37 87.9693C125.298 87.9349 125.215 87.93 125.139 87.9558L124.28 88.2629C124.994 87.2741 125.431 86.7061 125.453 86.6815C125.484 86.6507 125.508 86.6136 125.524 86.5727C125.54 86.5318 125.546 86.488 125.543 86.4443C125.541 86.4006 125.529 86.358 125.508 86.3193C125.488 86.2807 125.459 86.2468 125.424 86.2201C125.389 86.1934 125.349 86.1744 125.307 86.1644C125.264 86.1544 125.22 86.1536 125.176 86.1621C125.133 86.1706 125.093 86.1882 125.057 86.2137C125.021 86.2392 124.992 86.272 124.97 86.3099C124.951 86.3345 124.493 86.9241 123.739 87.962V87.1452C123.739 87.0637 123.706 86.9856 123.648 86.928C123.591 86.8704 123.512 86.8381 123.431 86.8381C123.349 86.8381 123.271 86.8704 123.213 86.928C123.155 86.9856 123.123 87.0637 123.123 87.1452L123.154 88.7818C122.538 89.6293 121.837 90.6703 121.052 91.8525L121.003 89.1073C121.003 89.0259 120.97 88.9478 120.912 88.8902C120.855 88.8326 120.776 88.8002 120.695 88.8002C120.613 88.8002 120.535 88.8326 120.477 88.8902C120.419 88.9478 120.387 89.0259 120.387 89.1073L120.452 92.746C120.144 93.2404 119.805 93.7563 119.473 94.2814L119.282 92.439C119.273 92.3596 119.233 92.2871 119.171 92.2366C119.109 92.1862 119.029 92.1618 118.95 92.1687C118.87 92.178 118.797 92.2179 118.747 92.2798C118.696 92.3417 118.672 92.4208 118.679 92.5004L118.95 95.1166C118.451 95.9354 117.947 96.7839 117.439 97.6621C117.183 96.6672 116.715 94.7481 116.401 93.4431C116.373 93.3758 116.322 93.3207 116.257 93.2876C116.192 93.2546 116.117 93.2458 116.046 93.2628C115.975 93.2798 115.912 93.3214 115.869 93.3804C115.826 93.4393 115.805 93.5116 115.81 93.5843C116.558 96.701 116.848 97.9139 117.02 98.393C114.896 102.25 112.788 106.549 111.382 110.829C111.357 110.906 111.364 110.989 111.4 111.061C111.436 111.132 111.499 111.187 111.576 111.213C111.608 111.222 111.641 111.227 111.674 111.228C111.737 111.227 111.798 111.206 111.849 111.168C111.899 111.131 111.937 111.079 111.957 111.019C113.355 106.779 115.45 102.495 117.574 98.7369C118.122 98.5864 120.793 97.9999 122.468 97.6406C122.512 97.6386 122.556 97.627 122.595 97.6064C122.635 97.5859 122.67 97.557 122.697 97.5217C122.724 97.4865 122.744 97.4457 122.754 97.4022C122.764 97.3588 122.764 97.3137 122.755 97.2701C122.745 97.2265 122.727 97.1854 122.7 97.1498C122.673 97.1141 122.639 97.0847 122.6 97.0635C122.56 97.0424 122.517 97.0301 122.472 97.0274C122.428 97.0247 122.383 97.0317 122.341 97.048C119.972 97.5547 118.691 97.8372 117.989 98.0091C118.491 97.1371 118.993 96.2957 119.482 95.4943L122.44 94.5731C122.484 94.5672 122.527 94.5517 122.565 94.5276C122.603 94.5035 122.635 94.4715 122.659 94.4337C122.683 94.3959 122.699 94.3534 122.704 94.309C122.71 94.2646 122.706 94.2194 122.693 94.1767C122.68 94.134 122.657 94.0947 122.627 94.0616C122.596 94.0286 122.559 94.0025 122.518 93.9853C122.476 93.968 122.432 93.96 122.387 93.9618C122.342 93.9637 122.298 93.9752 122.258 93.9958L119.968 94.7051C120.313 94.1493 120.655 93.612 120.987 93.0992L124.523 91.5638C124.567 91.553 124.608 91.5328 124.643 91.5046C124.678 91.4764 124.706 91.4409 124.726 91.4006C124.745 91.3603 124.756 91.3162 124.757 91.2714C124.758 91.2266 124.749 91.1821 124.73 91.1412C124.712 91.1002 124.685 91.0637 124.651 91.0343C124.617 91.0048 124.577 90.9832 124.534 90.9708C124.491 90.9584 124.446 90.9556 124.401 90.9625C124.357 90.9695 124.314 90.9861 124.277 91.0111L121.59 92.1872C122.366 91.0111 123.071 89.9855 123.662 89.1503L125.345 88.5362C125.383 88.5222 125.418 88.5008 125.448 88.4732C125.478 88.4457 125.502 88.4126 125.519 88.3758C125.535 88.339 125.545 88.2992 125.546 88.2587C125.548 88.2183 125.541 88.1779 125.527 88.14Z" fill="#4A518B"/>
<path d="M109.39 97.8974C109.39 97.8974 108.885 100.661 105.835 99.5218C102.785 98.3826 102.496 95.4255 103.459 92.8431C104.423 90.2607 101.73 85.5503 103.746 83.2596C105.761 80.9689 107.974 85.6486 109.569 88.2341C111.163 90.8196 113.179 92.533 113.57 94.3754C113.96 96.2178 112.468 98.8923 109.39 97.8974Z" fill="#2F3567"/>
<path d="M106.466 85.7245C106.433 85.7134 106.399 85.7089 106.364 85.7112C106.329 85.7135 106.295 85.7227 106.264 85.7381C106.233 85.7535 106.205 85.7748 106.182 85.801C106.159 85.8271 106.142 85.8574 106.131 85.8903L105.875 86.6426C105.586 85.6201 105.438 85.0152 105.432 84.9875C105.415 84.9222 105.374 84.8657 105.317 84.8297C105.26 84.7937 105.191 84.781 105.124 84.7941C105.058 84.8095 105.001 84.8503 104.964 84.9078C104.928 84.9653 104.916 85.0348 104.931 85.1012C104.931 85.1319 105.094 85.7644 105.395 86.8299L104.829 86.397C104.802 86.3758 104.77 86.3602 104.737 86.3512C104.703 86.3422 104.668 86.3399 104.634 86.3445C104.6 86.349 104.567 86.3604 104.537 86.3778C104.507 86.3953 104.481 86.4185 104.46 86.4461C104.417 86.5012 104.398 86.5708 104.407 86.6398C104.416 86.7088 104.451 86.7716 104.506 86.8146L105.642 87.6836C105.894 88.5495 106.217 89.6027 106.605 90.7819L104.706 89.3264C104.65 89.2842 104.579 89.2657 104.51 89.2749C104.44 89.284 104.377 89.3202 104.333 89.3755C104.312 89.4031 104.296 89.4346 104.287 89.4682C104.278 89.5019 104.276 89.537 104.281 89.5715C104.285 89.606 104.297 89.6393 104.314 89.6695C104.332 89.6996 104.355 89.726 104.383 89.7471L106.903 91.6754C107.066 92.1606 107.242 92.6642 107.423 93.18L106.072 92.3172C106.044 92.2976 106.011 92.2841 105.977 92.2775C105.943 92.2709 105.908 92.2714 105.874 92.2789C105.84 92.2864 105.807 92.3007 105.779 92.321C105.751 92.3413 105.727 92.3672 105.709 92.397C105.69 92.426 105.678 92.4584 105.671 92.4924C105.665 92.5263 105.666 92.5611 105.673 92.5948C105.681 92.6285 105.695 92.6604 105.715 92.6887C105.735 92.7169 105.76 92.7409 105.789 92.7594L107.719 93.9876C108.002 94.7676 108.31 95.5721 108.642 96.395C107.824 96.0296 106.26 95.3049 105.201 94.8106C105.17 94.7958 105.136 94.7875 105.101 94.7859C105.066 94.7843 105.031 94.7896 104.999 94.8015C104.966 94.8133 104.936 94.8314 104.91 94.8549C104.885 94.8783 104.864 94.9065 104.849 94.938C104.834 94.9694 104.826 95.0035 104.824 95.0382C104.823 95.0729 104.828 95.1075 104.84 95.1402C104.852 95.1728 104.87 95.2028 104.893 95.2285C104.917 95.2541 104.945 95.2749 104.977 95.2896C107.51 96.4718 108.495 96.9324 108.916 97.0767C110.368 100.757 112.169 104.291 114.293 107.631C114.331 107.689 114.391 107.73 114.46 107.745C114.529 107.759 114.6 107.746 114.659 107.707C114.685 107.692 114.707 107.671 114.724 107.646C114.757 107.601 114.775 107.548 114.775 107.492C114.775 107.437 114.757 107.383 114.724 107.339C112.582 104.093 110.797 100.359 109.378 96.874C109.572 96.4196 110.609 94.2885 111.286 92.9559C111.302 92.9248 111.311 92.891 111.313 92.8564C111.316 92.8218 111.311 92.787 111.3 92.7541C111.289 92.7211 111.272 92.6907 111.249 92.6645C111.226 92.6382 111.199 92.6168 111.167 92.6012C111.136 92.5857 111.102 92.5764 111.068 92.574C111.033 92.5715 110.998 92.5759 110.965 92.5869C110.932 92.5979 110.902 92.6152 110.875 92.638C110.849 92.6607 110.828 92.6884 110.812 92.7194C109.873 94.6048 109.372 95.6273 109.107 96.1954C108.784 95.3817 108.491 94.5864 108.199 93.8187L109.178 91.3131C109.191 91.2807 109.198 91.2458 109.198 91.2106C109.198 91.1755 109.191 91.1406 109.178 91.1082C109.164 91.0758 109.144 91.0465 109.119 91.0219C109.093 90.9973 109.064 90.978 109.031 90.9651C108.998 90.9522 108.963 90.946 108.928 90.9468C108.892 90.9476 108.858 90.9555 108.825 90.9699C108.793 90.9843 108.764 91.0049 108.74 91.0306C108.716 91.0564 108.698 91.0866 108.685 91.1196L107.928 93.0634C107.737 92.526 107.556 92.0009 107.383 91.5004L108.248 88.2578C108.262 88.1917 108.25 88.1229 108.214 88.0655C108.179 88.0081 108.122 87.9665 108.057 87.9492C107.992 87.9319 107.922 87.9403 107.863 87.9725C107.803 88.0048 107.758 88.0585 107.737 88.1227L107.082 90.5792C106.7 89.4185 106.383 88.3806 106.131 87.527L106.633 86.0531C106.653 85.9875 106.647 85.9165 106.616 85.8551C106.585 85.7938 106.531 85.7469 106.466 85.7245Z" fill="#4A518B"/>
<path d="M122.363 97.4606C122.363 97.4606 119.593 98.0102 119.544 94.7615C119.494 91.5127 122.132 90.1555 124.896 90.1002C127.659 90.0449 131.051 85.8013 133.929 86.8392C136.806 87.8771 133.261 91.6386 131.436 94.0736C129.611 96.5087 128.755 99.002 127.195 100.034C125.634 101.066 122.569 100.682 122.363 97.4606Z" fill="#46CD80"/>
<path d="M132.648 90.2749C132.646 90.2403 132.638 90.2064 132.623 90.1751C132.608 90.1439 132.587 90.1158 132.561 90.0927C132.536 90.0695 132.505 90.0517 132.473 90.0403C132.44 90.0289 132.405 90.0241 132.371 90.0262L131.577 90.0661C132.423 89.4212 132.931 89.0589 132.955 89.0435C133.013 89.0028 133.051 88.9411 133.063 88.872C133.074 88.8029 133.058 88.7321 133.017 88.6751C132.976 88.6181 132.914 88.5796 132.845 88.568C132.776 88.5565 132.705 88.5729 132.648 88.6137C132.623 88.629 132.091 89.0067 131.207 89.6792L131.404 88.9975C131.424 88.9299 131.416 88.8573 131.382 88.7957C131.365 88.7652 131.342 88.7383 131.315 88.7165C131.288 88.6948 131.256 88.6786 131.223 88.6689C131.155 88.6494 131.082 88.6575 131.02 88.6915C130.959 88.7254 130.913 88.7825 130.893 88.8501L130.493 90.2165C129.779 90.7723 128.918 91.4448 127.957 92.2493L128.616 89.9525C128.628 89.9184 128.634 89.8821 128.631 89.8459C128.629 89.8097 128.619 89.7744 128.603 89.7421C128.586 89.7098 128.563 89.6812 128.535 89.6582C128.507 89.6352 128.475 89.6182 128.44 89.6082C128.405 89.5983 128.368 89.5957 128.332 89.6005C128.296 89.6053 128.261 89.6174 128.23 89.6362C128.199 89.655 128.172 89.6799 128.151 89.7095C128.13 89.7391 128.116 89.7726 128.108 89.8081L127.234 92.8542C126.844 93.1859 126.442 93.5318 126.028 93.8921L126.335 92.3199C126.342 92.286 126.342 92.2512 126.335 92.2173C126.328 92.1835 126.315 92.1514 126.295 92.1228C126.276 92.0942 126.251 92.0698 126.222 92.0509C126.193 92.0321 126.16 92.0191 126.126 92.0129C126.058 92.0002 125.988 92.0146 125.93 92.0531C125.873 92.0915 125.832 92.151 125.818 92.2186L125.378 94.4663C124.763 95.016 124.119 95.5963 123.473 96.2012C123.51 95.3107 123.612 93.5912 123.682 92.4274C123.685 92.3929 123.681 92.3582 123.669 92.3254C123.658 92.2925 123.641 92.2623 123.618 92.2362C123.595 92.2102 123.567 92.189 123.536 92.1739C123.505 92.1587 123.471 92.1499 123.436 92.148C123.366 92.1438 123.298 92.1672 123.245 92.2132C123.193 92.2593 123.161 92.3241 123.156 92.3936C122.984 95.1787 122.916 96.2627 122.938 96.6925C120.192 99.3087 117.339 102.364 115.08 105.567C115.06 105.595 115.046 105.627 115.039 105.66C115.031 105.694 115.03 105.729 115.036 105.763C115.042 105.797 115.055 105.829 115.074 105.858C115.092 105.887 115.117 105.912 115.145 105.932C115.169 105.95 115.196 105.963 115.225 105.972C115.277 105.986 115.333 105.984 115.384 105.966C115.435 105.948 115.479 105.915 115.511 105.871C117.755 102.693 120.589 99.6588 123.319 97.061C123.815 97.061 126.185 97.2637 127.671 97.3896C127.706 97.3925 127.741 97.3886 127.774 97.3779C127.807 97.3673 127.838 97.3503 127.865 97.3277C127.891 97.3052 127.913 97.2776 127.929 97.2466C127.945 97.2156 127.955 97.1817 127.957 97.147C127.96 97.1127 127.956 97.0782 127.946 97.0454C127.935 97.0126 127.919 96.9822 127.896 96.9559C127.874 96.9297 127.847 96.9081 127.816 96.8924C127.785 96.8767 127.752 96.8672 127.717 96.8645C125.615 96.6833 124.476 96.5943 123.849 96.5574C124.489 95.9587 125.12 95.3875 125.732 94.844L128.428 94.8287C128.465 94.8326 128.503 94.8288 128.538 94.8175C128.573 94.8061 128.606 94.7874 128.634 94.7626C128.661 94.7379 128.683 94.7076 128.698 94.6737C128.714 94.6399 128.721 94.6032 128.721 94.5661C128.721 94.529 128.714 94.4924 128.698 94.4585C128.683 94.4247 128.661 94.3944 128.634 94.3696C128.606 94.3448 128.573 94.3261 128.538 94.3148C128.503 94.3034 128.465 94.2996 128.428 94.3036H126.342C126.769 93.929 127.191 93.5666 127.597 93.2258L130.937 92.8327C130.971 92.8289 131.004 92.8183 131.035 92.8016C131.065 92.7848 131.092 92.7622 131.113 92.735C131.135 92.7079 131.15 92.6768 131.16 92.6435C131.169 92.6102 131.172 92.5753 131.167 92.541C131.164 92.5051 131.153 92.4702 131.135 92.4387C131.117 92.4072 131.093 92.3796 131.064 92.3577C131.035 92.3358 131.002 92.3201 130.967 92.3115C130.932 92.3029 130.895 92.3016 130.86 92.3077L128.321 92.6147C129.265 91.8348 130.115 91.1592 130.816 90.6127L132.377 90.5328C132.412 90.534 132.447 90.5283 132.479 90.5159C132.512 90.5036 132.542 90.4848 132.567 90.4608C132.592 90.4367 132.612 90.4079 132.626 90.376C132.64 90.3441 132.647 90.3097 132.648 90.2749Z" fill="#25B763"/>
<path d="M113.523 93.5914C113.523 93.5914 111.194 95.8054 109.15 92.7071C107.106 89.6088 108.821 86.6917 111.449 84.9537C114.077 83.2157 114.757 77.0621 118.161 76.3006C121.565 75.5391 120.457 81.3365 120.19 84.794C119.922 88.2516 120.627 91.1779 119.753 93.1247C118.879 95.0715 115.693 96.573 113.523 93.5914Z" fill="#46CD80"/>
<path d="M119.014 80.3969C118.967 80.3329 118.896 80.2898 118.818 80.2767C118.739 80.2635 118.658 80.2813 118.593 80.3263L117.851 80.8483C118.272 79.7122 118.543 79.0551 118.556 79.0243C118.571 78.954 118.561 78.8805 118.527 78.8167C118.494 78.7529 118.439 78.7029 118.372 78.6755C118.305 78.6481 118.231 78.6449 118.162 78.6666C118.093 78.6882 118.034 78.7334 117.995 78.794C117.995 78.8248 117.703 79.5157 117.263 80.7009L117.032 79.921C116.999 79.8581 116.945 79.8088 116.879 79.7812C116.814 79.7537 116.74 79.7498 116.672 79.77C116.604 79.7903 116.545 79.8336 116.505 79.8925C116.465 79.9514 116.447 80.0222 116.454 80.0929L116.915 81.6528C116.567 82.6232 116.155 83.8023 115.721 85.1595L114.945 82.5433C114.941 82.4981 114.927 82.4544 114.904 82.4154C114.881 82.3763 114.849 82.3429 114.811 82.3175C114.774 82.2921 114.731 82.2753 114.686 82.2684C114.641 82.2615 114.595 82.2647 114.551 82.2776C114.508 82.2906 114.467 82.313 114.434 82.3434C114.4 82.3737 114.373 82.4111 114.355 82.453C114.338 82.4948 114.33 82.5401 114.332 82.5854C114.334 82.6308 114.346 82.6751 114.367 82.7153L115.395 86.1851C115.219 86.7409 115.041 87.3212 114.862 87.92L114.198 86.2189C114.167 86.1453 114.11 86.0863 114.037 86.0542C113.964 86.0222 113.882 86.0196 113.807 86.0469C113.733 86.077 113.674 86.1345 113.642 86.2072C113.61 86.28 113.607 86.3623 113.634 86.4369L114.588 88.8689C114.327 89.7901 114.065 90.7266 113.813 91.7061C113.305 90.8218 112.348 89.1053 111.705 87.9385C111.691 87.8955 111.667 87.8562 111.636 87.8234C111.605 87.7905 111.567 87.7649 111.525 87.7484C111.483 87.7319 111.437 87.7248 111.392 87.7278C111.347 87.7307 111.303 87.7436 111.263 87.7654C111.224 87.7872 111.19 87.8175 111.163 87.8541C111.136 87.8907 111.118 87.9327 111.11 87.9771C111.101 88.0215 111.103 88.0672 111.114 88.1109C111.126 88.1547 111.146 88.1954 111.175 88.2302C112.714 91.0183 113.314 92.1023 113.61 92.5291C112.563 96.7236 111.686 101.409 111.471 105.874C111.471 105.952 111.5 106.027 111.553 106.084C111.606 106.141 111.679 106.176 111.757 106.181C111.791 106.187 111.825 106.187 111.859 106.181C111.918 106.163 111.97 106.127 112.009 106.078C112.047 106.029 112.07 105.97 112.074 105.908C112.289 101.477 113.16 96.8249 114.201 92.658C114.684 92.3663 117.088 91.1043 118.596 90.3182C118.651 90.2737 118.689 90.2117 118.703 90.1425C118.718 90.0733 118.708 90.0012 118.675 89.9384C118.643 89.8756 118.59 89.826 118.525 89.7978C118.46 89.7697 118.387 89.7648 118.319 89.7839C116.183 90.8955 115.032 91.5004 114.404 91.8505C114.653 90.8832 114.912 89.9467 115.167 89.047L117.758 87.3919C117.825 87.3474 117.871 87.279 117.888 87.2011C117.904 87.1232 117.89 87.0418 117.848 86.9743C117.803 86.909 117.735 86.8633 117.658 86.8467C117.581 86.8301 117.5 86.8439 117.432 86.8852L115.413 88.1503C115.598 87.5239 115.782 86.9221 115.964 86.3448L118.94 83.9313C118.986 83.8768 119.012 83.8081 119.013 83.7368C119.014 83.6656 118.99 83.5963 118.945 83.5407C118.9 83.4852 118.838 83.4469 118.768 83.4325C118.698 83.418 118.625 83.4282 118.562 83.4614L116.297 85.3038C116.727 83.9742 117.131 82.8074 117.475 81.8493L118.928 80.8238C118.962 80.8014 118.991 80.7727 119.014 80.7391C119.036 80.7056 119.052 80.6679 119.06 80.6282C119.068 80.5885 119.068 80.5477 119.06 80.508C119.052 80.4683 119.037 80.4306 119.014 80.3969Z" fill="#25B763"/>
</g>
<path d="M48.2431 99.8292H37.6374C37.4254 99.8343 37.2157 99.7847 37.0286 99.6852C36.8415 99.5857 36.6834 99.4396 36.5695 99.2612C36.4199 99.0154 36.3659 98.7234 36.4175 98.4405C36.4691 98.1576 36.6228 97.9034 36.8495 97.7259C42.5679 93.2273 40.829 80.0788 40.4935 77.8894C40.4851 77.8482 40.4853 77.8056 40.4942 77.7644C40.503 77.7232 40.5202 77.6843 40.5447 77.65C40.5692 77.6157 40.6006 77.5869 40.6368 77.5652C40.673 77.5435 40.7133 77.5295 40.7551 77.524L42.4417 77.217C42.4839 77.2072 42.5278 77.2064 42.5704 77.2147C42.6129 77.223 42.6533 77.2401 42.6887 77.2651C42.7242 77.29 42.7539 77.3221 42.7761 77.3594C42.7982 77.3966 42.8122 77.438 42.8172 77.481C43.1557 79.609 44.7222 91.1086 40.3027 97.4403C40.3005 97.444 40.2994 97.4483 40.2994 97.4526C40.2994 97.4569 40.3006 97.4612 40.3027 97.4649C40.3049 97.4687 40.3081 97.4718 40.3118 97.4739C40.3156 97.4761 40.3199 97.4772 40.3242 97.4771H48.2431C48.2861 97.4749 48.3291 97.4818 48.3693 97.4972C48.4096 97.5126 48.4461 97.5363 48.4765 97.5667C48.507 97.5971 48.5307 97.6335 48.5462 97.6736C48.5616 97.7137 48.5685 97.7566 48.5663 97.7995V99.5038C48.5689 99.5469 48.5624 99.5902 48.5472 99.6307C48.5319 99.6712 48.5082 99.708 48.4777 99.7387C48.4472 99.7694 48.4106 99.7934 48.3701 99.809C48.3297 99.8246 48.2864 99.8315 48.2431 99.8292Z" fill="#5A89C6"/>
<path d="M40.6243 52.4493L39.8472 52.5791C39.0492 52.7123 38.5106 53.4657 38.6441 54.2619L45.2756 93.7995C45.4091 94.5957 46.1643 95.1331 46.9623 94.9998L47.7394 94.8701C48.5374 94.7369 49.076 93.9834 48.9425 93.1873L42.311 53.6497C42.1775 52.8535 41.4223 52.3161 40.6243 52.4493Z" fill="#5A89C6"/>
<path d="M66.2015 96.7559H52.2565C51.5987 96.7559 51.0654 97.2879 51.0654 97.9442V98.6412C51.0654 99.2975 51.5987 99.8296 52.2565 99.8296H66.2015C66.8593 99.8296 67.3925 99.2975 67.3925 98.6412V97.9442C67.3925 97.2879 66.8593 96.7559 66.2015 96.7559Z" fill="#5A89C6"/>
<path d="M122.209 102.394H24.3601C24.1739 102.394 23.9895 102.358 23.8176 102.287C23.6456 102.215 23.4894 102.111 23.3579 101.98C23.2264 101.848 23.1222 101.692 23.0512 101.52C22.9803 101.349 22.9439 101.165 22.9443 100.979C22.9443 100.604 23.0935 100.245 23.359 99.9801C23.6245 99.7152 23.9846 99.5664 24.3601 99.5664H122.209C122.395 99.566 122.579 99.6022 122.752 99.6731C122.924 99.7439 123.08 99.8478 123.212 99.979C123.344 100.11 123.448 100.266 123.52 100.438C123.591 100.609 123.628 100.793 123.628 100.979C123.628 101.165 123.592 101.349 123.52 101.521C123.449 101.693 123.345 101.849 123.213 101.981C123.081 102.112 122.925 102.217 122.752 102.288C122.58 102.359 122.395 102.395 122.209 102.394Z" fill="#EABC32"/>
<path d="M117.296 92.8926C116.885 92.892 116.483 93.0131 116.141 93.2406C115.799 93.4681 115.532 93.7918 115.375 94.1707C115.217 94.5495 115.176 94.9665 115.256 95.3689C115.336 95.7712 115.534 96.1408 115.824 96.4309C116.115 96.7209 116.485 96.9184 116.889 96.9983C117.292 97.0782 117.71 97.0369 118.09 96.8796C118.469 96.7223 118.794 96.4562 119.022 96.1149C119.25 95.7736 119.371 95.3724 119.371 94.9622C119.371 94.4133 119.152 93.8869 118.763 93.4988C118.374 93.1106 117.846 92.8926 117.296 92.8926ZM117.296 96.387C117.014 96.387 116.738 96.3034 116.503 96.1469C116.268 95.9903 116.085 95.7678 115.977 95.5074C115.869 95.2471 115.841 94.9606 115.896 94.6842C115.951 94.4079 116.087 94.154 116.287 93.9547C116.486 93.7555 116.741 93.6198 117.018 93.5648C117.295 93.5098 117.582 93.538 117.843 93.6459C118.104 93.7537 118.327 93.9363 118.484 94.1706C118.641 94.4049 118.724 94.6804 118.724 94.9622C118.725 95.1494 118.688 95.3349 118.616 95.5079C118.545 95.681 118.44 95.8382 118.307 95.9706C118.174 96.103 118.017 96.2079 117.843 96.2794C117.67 96.3508 117.484 96.3874 117.296 96.387Z" fill="#E5D157"/>
<path d="M115.964 93.2891C115.964 93.2891 115.902 98.8162 111.104 99.5655H109.901C105.109 98.8285 105.041 93.2891 105.041 93.2891L110.504 93.6821L115.964 93.2891Z" fill="#E5D157"/>
<path d="M115.965 93.2897C115.965 93.7196 113.521 94.0697 110.505 94.0697C107.489 94.0697 105.045 93.7196 105.045 93.2897C105.045 92.8598 107.489 92.5098 110.505 92.5098C113.521 92.5098 115.965 92.8568 115.965 93.2897Z" fill="#FFEB88"/>
<path d="M114.49 93.2887C114.49 93.5067 112.711 93.6848 110.516 93.6848C108.322 93.6848 106.54 93.5067 106.54 93.2887C106.54 93.0707 108.322 92.8926 110.516 92.8926C112.711 92.8926 114.49 93.0707 114.49 93.2887Z" fill="#18203D"/>
<path d="M36.7172 63.2804L33.9473 64.8956V68.3101C33.9465 68.8487 33.7314 69.365 33.3494 69.7455C32.9674 70.1261 32.4497 70.3398 31.9098 70.3398H15.2934C15.0259 70.3402 14.7609 70.2881 14.5135 70.1863C14.2662 70.0845 14.0413 69.9351 13.8519 69.7466C13.6624 69.5582 13.512 69.3343 13.4092 69.0878C13.3064 68.8413 13.2533 68.5771 13.2529 68.3101V58.2476C13.2537 57.7082 13.4691 57.1912 13.8517 56.81C14.2342 56.4289 14.7528 56.2148 15.2934 56.2148H31.8945C32.4346 56.2157 32.9523 56.4301 33.3342 56.8111C33.7162 57.1922 33.9311 57.7087 33.9319 58.2476V61.6591L36.7172 63.2804Z" fill="white"/>
<path d="M28.8407 59.1777H18.3458C17.9294 59.1777 17.5918 59.5146 17.5918 59.93V66.6241C17.5918 67.0396 17.9294 67.3764 18.3458 67.3764H28.8407C29.2572 67.3764 29.5948 67.0396 29.5948 66.6241V59.93C29.5948 59.5146 29.2572 59.1777 28.8407 59.1777Z" fill="#2F3567"/>
<path d="M28.5922 60.4336L23.594 63.277L18.5928 60.4336" stroke="white" stroke-width="2" stroke-linecap="round" stroke-linejoin="round"/>
<path d="M47.8399 33.2828V43.3453C47.8399 43.6121 47.7872 43.8763 47.6848 44.1227C47.5824 44.3692 47.4322 44.5931 47.243 44.7816C47.0538 44.9701 46.8291 45.1196 46.582 45.2214C46.3348 45.3232 46.0699 45.3754 45.8025 45.375H39.1239L37.4989 48.1386L35.8801 45.375H29.2015C28.6617 45.375 28.1439 45.1613 27.7619 44.7807C27.3799 44.4001 27.1649 43.8839 27.1641 43.3453V33.2828C27.1649 32.7439 27.3798 32.2273 27.7617 31.8463C28.1436 31.4652 28.6614 31.2508 29.2015 31.25H45.8025C46.0701 31.25 46.335 31.3026 46.5822 31.4047C46.8294 31.5069 47.054 31.6566 47.2432 31.8454C47.4324 32.0341 47.5825 32.2582 47.6848 32.5049C47.7872 32.7515 47.8399 33.0158 47.8399 33.2828Z" fill="#FF6F3F"/>
<path d="M34.0083 38.3834C34.0083 38.647 33.93 38.9047 33.7832 39.1238C33.6365 39.343 33.4279 39.5138 33.1838 39.6147C32.9397 39.7155 32.6711 39.7419 32.412 39.6905C32.1529 39.6391 31.9149 39.5122 31.7281 39.3258C31.5413 39.1394 31.4141 38.9019 31.3626 38.6434C31.311 38.3849 31.3375 38.117 31.4386 37.8735C31.5397 37.6299 31.7109 37.4218 31.9305 37.2754C32.1502 37.1289 32.4085 37.0508 32.6726 37.0508C33.0266 37.0516 33.3659 37.1923 33.6162 37.442C33.8665 37.6918 34.0075 38.0302 34.0083 38.3834Z" fill="white"/>
<path d="M38.8374 38.3834C38.8374 38.647 38.7591 38.9047 38.6123 39.1238C38.4656 39.343 38.257 39.5138 38.0129 39.6147C37.7688 39.7155 37.5003 39.7419 37.2411 39.6905C36.982 39.6391 36.744 39.5122 36.5572 39.3258C36.3704 39.1394 36.2432 38.9019 36.1917 38.6434C36.1401 38.3849 36.1666 38.117 36.2677 37.8735C36.3688 37.6299 36.54 37.4218 36.7596 37.2754C36.9793 37.1289 37.2376 37.0508 37.5017 37.0508C37.856 37.0508 38.1957 37.1912 38.4462 37.4411C38.6967 37.691 38.8374 38.03 38.8374 38.3834Z" fill="white"/>
<path d="M43.6665 38.3834C43.6665 38.647 43.5882 38.9047 43.4414 39.1238C43.2947 39.343 43.0861 39.5138 42.842 39.6147C42.5979 39.7155 42.3294 39.7419 42.0703 39.6905C41.8111 39.6391 41.5731 39.5122 41.3863 39.3258C41.1995 39.1394 41.0723 38.9019 41.0208 38.6434C40.9692 38.3849 40.9957 38.117 41.0968 37.8735C41.1979 37.6299 41.3691 37.4218 41.5888 37.2754C41.8084 37.1289 42.0667 37.0508 42.3308 37.0508C42.5062 37.0508 42.6799 37.0853 42.842 37.1522C43.004 37.2192 43.1513 37.3174 43.2753 37.4411C43.3994 37.5649 43.4977 37.7118 43.5649 37.8735C43.632 38.0351 43.6665 38.2084 43.6665 38.3834Z" fill="white"/>
<path d="M62.5223 18.3006L61.7295 18.5388C61.5424 18.595 61.4363 18.792 61.4927 18.9788L62.4459 22.1365C62.5022 22.3233 62.6996 22.4291 62.8868 22.3728L63.6795 22.1346C63.8667 22.0784 63.9727 21.8814 63.9164 21.6947L62.9632 18.5369C62.9068 18.3502 62.7094 18.2444 62.5223 18.3006Z" fill="#FF6F3F"/>
<path d="M60.5844 23.7425C60.438 24.6203 60.496 25.52 60.7537 26.3719C61.0115 27.2238 61.4622 28.0052 62.0709 28.6556C62.2949 28.9061 62.5859 29.0877 62.9097 29.179C63.2335 29.2704 63.5767 29.2678 63.899 29.1714L64.5146 28.9872L65.4902 32.2421C65.4902 32.2421 60.6613 32.7518 58.9101 26.9452C57.1589 21.1386 61.4646 18.9062 61.4646 18.9062L62.4433 22.1427L61.8278 22.327C61.5076 22.4216 61.2209 22.6047 61.0008 22.8553C60.7808 23.1058 60.6364 23.4135 60.5844 23.7425Z" fill="#FF6F3F"/>
<path d="M65.5398 28.2967L64.7471 28.5349C64.5599 28.5911 64.4539 28.7881 64.5103 28.9748L65.4634 32.1326C65.5198 32.3194 65.7172 32.4252 65.9044 32.3689L66.6971 32.1307C66.8843 32.0745 66.9903 31.8775 66.934 31.6908L65.9808 28.533C65.9244 28.3463 65.727 28.2405 65.5398 28.2967Z" fill="#FF6F3F"/>
<path d="M57.8791 33.6025L58.4946 32.4848C57.4975 32.015 53.9827 30.0682 53.5888 26.064C53.0902 21.019 56.051 18.1172 56.051 18.1172L58.8209 19.6801C58.8209 19.6801 56.0109 22.1704 56.0109 25.8952C55.9803 27.0328 56.2274 28.1608 56.7308 29.1819C57.2342 30.2031 57.979 31.0869 58.9009 31.757L59.4641 30.7621L61.3846 33.6025H57.8791Z" fill="#2F3567"/>
<path d="M69.1959 17.1641L68.5804 18.2818C69.5745 18.7547 73.0923 20.6984 73.4862 24.7025C73.9817 29.7507 71.0241 32.6524 71.0241 32.6524L68.2541 31.0895C68.2541 31.0895 71.0641 28.5992 71.0641 24.8745C71.095 23.7368 70.848 22.6087 70.3446 21.5875C69.8411 20.5663 69.0962 19.6826 68.1741 19.0126L67.6109 20.0075L65.6904 17.1641H69.1959Z" fill="#2F3567"/>
<path d="M121.23 66.5679V77.4319C121.229 77.9656 121.016 78.4772 120.637 78.8543C120.259 79.2314 119.746 79.4432 119.211 79.4432H108.334C107.799 79.4432 107.286 79.2314 106.908 78.8543C106.529 78.4772 106.316 77.9656 106.315 77.4319V66.5679C106.316 66.0342 106.529 65.5226 106.908 65.1455C107.286 64.7684 107.799 64.5566 108.334 64.5566H119.22C119.753 64.5591 120.264 64.772 120.641 65.1488C121.017 65.5256 121.229 66.0358 121.23 66.5679Z" fill="white"/>
<path d="M115.665 72.0865C116.712 71.042 116.712 69.3486 115.665 68.3041C114.618 67.2597 112.921 67.2597 111.874 68.3041C110.827 69.3486 110.827 71.042 111.874 72.0865C112.921 73.131 114.618 73.131 115.665 72.0865Z" fill="#2F3567"/>
<path d="M118.35 78.36V79.4439H109.188V78.36C109.218 77.1683 109.715 76.0358 110.57 75.2038C111.426 74.3718 112.574 73.9062 113.769 73.9062C114.963 73.9062 116.111 74.3718 116.967 75.2038C117.823 76.0358 118.319 77.1683 118.35 78.36Z" fill="#2F3567"/>
<path d="M112.354 55.4492C112.512 55.2982 112.71 55.1973 112.925 55.1594C113.14 55.1214 113.361 55.1481 113.561 55.2361C113.76 55.3241 113.929 55.4693 114.046 55.6534C114.162 55.8374 114.221 56.0519 114.215 56.2695C114.209 56.4871 114.138 56.6979 114.011 56.8752C113.885 57.0524 113.708 57.188 113.504 57.2647C113.3 57.3414 113.077 57.3557 112.865 57.3058C112.652 57.2559 112.46 57.1441 112.311 56.9846C112.115 56.7744 112.009 56.4954 112.017 56.2081C112.025 55.9207 112.146 55.6481 112.354 55.4492Z" fill="#DB9431"/>
<path d="M110.274 48.5775C110.406 48.4518 110.573 48.3683 110.754 48.3375C110.934 48.3066 111.119 48.3299 111.286 48.4042C111.453 48.4785 111.594 48.6006 111.691 48.755C111.789 48.9095 111.838 49.0892 111.833 49.2715C111.827 49.4539 111.768 49.6305 111.662 49.7792C111.556 49.9279 111.408 50.0418 111.238 50.1066C111.067 50.1713 110.88 50.184 110.702 50.1431C110.524 50.1021 110.362 50.0092 110.237 49.8763C110.07 49.6989 109.98 49.4627 109.987 49.2193C109.994 48.9759 110.097 48.7451 110.274 48.5775Z" fill="#447777"/>
<path d="M104.371 47.7602C104.455 47.6819 104.56 47.6301 104.673 47.6113C104.786 47.5926 104.903 47.6078 105.008 47.6549C105.112 47.7021 105.201 47.7792 105.262 47.8764C105.322 47.9736 105.353 48.0866 105.35 48.2012C105.346 48.3158 105.309 48.4268 105.242 48.5202C105.176 48.6136 105.083 48.6853 104.976 48.7261C104.868 48.767 104.751 48.7752 104.639 48.7497C104.527 48.7243 104.425 48.6663 104.346 48.5831C104.293 48.5276 104.252 48.4622 104.225 48.3907C104.197 48.3192 104.184 48.243 104.187 48.1666C104.189 48.0901 104.206 48.0148 104.238 47.9451C104.27 47.8753 104.315 47.8125 104.371 47.7602Z" fill="#C9414E"/>
<path d="M53.3087 58.9047C53.1023 58.8366 52.9209 58.7091 52.7872 58.5382C52.6535 58.3672 52.5736 58.1606 52.5577 57.9444C52.5417 57.7282 52.5903 57.5121 52.6974 57.3234C52.8046 57.1348 52.9653 56.9821 53.1594 56.8846C53.3535 56.7871 53.5723 56.7493 53.7879 56.7758C54.0036 56.8024 54.2065 56.8921 54.3711 57.0337C54.5356 57.1753 54.6544 57.3624 54.7123 57.5714C54.7703 57.7804 54.7649 58.0018 54.6967 58.2076C54.6515 58.3443 54.5796 58.4708 54.4854 58.5798C54.3911 58.6888 54.2763 58.7783 54.1474 58.843C54.0185 58.9077 53.8781 58.9465 53.7342 58.9571C53.5903 58.9676 53.4457 58.9498 53.3087 58.9047Z" fill="#DB9431"/>
<path d="M48.8554 60.6149C48.6817 60.5581 48.5287 60.4511 48.416 60.3074C48.3033 60.1638 48.2359 59.99 48.2223 59.8081C48.2087 59.6262 48.2495 59.4443 48.3396 59.2856C48.4297 59.1269 48.565 58.9984 48.7284 58.9165C48.8917 58.8346 49.0758 58.8029 49.2572 58.8254C49.4387 58.848 49.6093 58.9238 49.7475 59.0432C49.8857 59.1626 49.9853 59.3203 50.0335 59.4962C50.0818 59.6722 50.0767 59.8585 50.0188 60.0315C49.9414 60.2624 49.7757 60.4533 49.5577 60.5626C49.3397 60.6719 49.0872 60.6907 48.8554 60.6149Z" fill="#447777"/>
<path d="M50.8681 65.6526C50.7589 65.6164 50.663 65.5488 50.5923 65.4582C50.5217 65.3677 50.4796 65.2582 50.4712 65.1438C50.4629 65.0293 50.4888 64.915 50.5456 64.8152C50.6024 64.7154 50.6876 64.6347 50.7904 64.5832C50.8932 64.5317 51.009 64.5118 51.1231 64.5259C51.2373 64.5401 51.3446 64.5877 51.4317 64.6627C51.5187 64.7377 51.5815 64.8368 51.6121 64.9474C51.6427 65.058 51.6398 65.1752 51.6037 65.2841C51.5796 65.3565 51.5416 65.4235 51.4916 65.4812C51.4416 65.5389 51.3807 65.5863 51.3124 65.6205C51.2441 65.6547 51.1697 65.6752 51.0935 65.6807C51.0172 65.6862 50.9406 65.6767 50.8681 65.6526Z" fill="#C9414E"/>
</svg>
