<svg width="21" height="21" viewBox="0 0 21 21" fill="none" xmlns="http://www.w3.org/2000/svg">
<g clip-path="url(#clip0_6616_4658)">
<path d="M16.3626 13.4264C16.2517 13.6778 16.2186 13.9566 16.2676 14.2269C16.3166 14.4973 16.4455 14.7467 16.6376 14.9431L16.6876 14.9931C16.8426 15.1479 16.9655 15.3317 17.0494 15.534C17.1333 15.7364 17.1764 15.9532 17.1764 16.1723C17.1764 16.3913 17.1333 16.6082 17.0494 16.8105C16.9655 17.0128 16.8426 17.1966 16.6876 17.3514C16.5328 17.5064 16.349 17.6293 16.1467 17.7132C15.9444 17.7971 15.7275 17.8402 15.5085 17.8402C15.2894 17.8402 15.0726 17.7971 14.8702 17.7132C14.6679 17.6293 14.4841 17.5064 14.3293 17.3514L14.2793 17.3014C14.0829 17.1093 13.8335 16.9804 13.5631 16.9314C13.2928 16.8824 13.014 16.9155 12.7626 17.0264C12.5162 17.1321 12.3059 17.3075 12.1579 17.531C12.0098 17.7546 11.9304 18.0166 11.9293 18.2848V18.4264C11.9293 18.8685 11.7537 19.2924 11.4411 19.6049C11.1286 19.9175 10.7047 20.0931 10.2626 20.0931C9.8206 20.0931 9.39668 19.9175 9.08412 19.6049C8.77156 19.2924 8.59596 18.8685 8.59596 18.4264V18.3514C8.58951 18.0756 8.50023 17.8081 8.33972 17.5837C8.17922 17.3593 7.95491 17.1883 7.69596 17.0931C7.44462 16.9822 7.1658 16.9491 6.89547 16.9981C6.62514 17.0471 6.3757 17.176 6.1793 17.3681L6.1293 17.4181C5.97451 17.5731 5.79069 17.696 5.58836 17.7799C5.38603 17.8637 5.16916 17.9069 4.95013 17.9069C4.7311 17.9069 4.51423 17.8637 4.3119 17.7799C4.10957 17.696 3.92575 17.5731 3.77096 17.4181C3.616 17.2633 3.49307 17.0795 3.4092 16.8772C3.32532 16.6748 3.28215 16.458 3.28215 16.2389C3.28215 16.0199 3.32532 15.803 3.4092 15.6007C3.49307 15.3984 3.616 15.2146 3.77096 15.0598L3.82096 15.0098C4.01308 14.8134 4.14195 14.5639 4.19097 14.2936C4.23998 14.0233 4.20689 13.7444 4.09596 13.4931C3.99033 13.2466 3.81493 13.0364 3.59135 12.8884C3.36778 12.7403 3.10579 12.6608 2.83763 12.6598H2.69596C2.25394 12.6598 1.83001 12.4842 1.51745 12.1716C1.20489 11.859 1.0293 11.4351 1.0293 10.9931C1.0293 10.5511 1.20489 10.1271 1.51745 9.81459C1.83001 9.50203 2.25394 9.32643 2.69596 9.32643H2.77096C3.04679 9.31998 3.3143 9.2307 3.53871 9.07019C3.76312 8.90968 3.93406 8.68538 4.0293 8.42643C4.14023 8.17509 4.17332 7.89627 4.1243 7.62594C4.07529 7.35561 3.94641 7.10617 3.7543 6.90977L3.7043 6.85977C3.54934 6.70498 3.4264 6.52116 3.34253 6.31883C3.25866 6.1165 3.21549 5.89962 3.21549 5.6806C3.21549 5.46157 3.25866 5.2447 3.34253 5.04237C3.4264 4.84004 3.54934 4.65622 3.7043 4.50143C3.85909 4.34647 4.0429 4.22354 4.24523 4.13967C4.44756 4.05579 4.66444 4.01262 4.88346 4.01262C5.10249 4.01262 5.31937 4.05579 5.5217 4.13967C5.72403 4.22354 5.90784 4.34647 6.06263 4.50143L6.11263 4.55143C6.30903 4.74355 6.55848 4.87242 6.82881 4.92144C7.09914 4.97045 7.37795 4.93736 7.6293 4.82643H7.69596C7.94244 4.7208 8.15264 4.5454 8.30071 4.32182C8.44877 4.09824 8.52823 3.83625 8.5293 3.5681V3.42643C8.5293 2.9844 8.70489 2.56048 9.01745 2.24792C9.33001 1.93536 9.75394 1.75977 10.196 1.75977C10.638 1.75977 11.0619 1.93536 11.3745 2.24792C11.687 2.56048 11.8626 2.9844 11.8626 3.42643V3.50143C11.8637 3.76959 11.9432 4.03158 12.0912 4.25515C12.2393 4.47873 12.4495 4.65413 12.696 4.75977C12.9473 4.8707 13.2261 4.90379 13.4965 4.85477C13.7668 4.80575 14.0162 4.67688 14.2126 4.48477L14.2626 4.43477C14.4174 4.27981 14.6012 4.15687 14.8036 4.073C15.0059 3.98913 15.2228 3.94595 15.4418 3.94595C15.6608 3.94595 15.8777 3.98913 16.08 4.073C16.2824 4.15687 16.4662 4.27981 16.621 4.43477C16.7759 4.58955 16.8989 4.77337 16.9827 4.9757C17.0666 5.17803 17.1098 5.39491 17.1098 5.61393C17.1098 5.83296 17.0666 6.04984 16.9827 6.25217C16.8989 6.4545 16.7759 6.63831 16.621 6.7931L16.571 6.8431C16.3788 7.0395 16.25 7.28895 16.201 7.55928C16.1519 7.8296 16.185 8.10842 16.296 8.35977V8.42643C16.4016 8.67291 16.577 8.88311 16.8006 9.03118C17.0242 9.17924 17.2861 9.2587 17.5543 9.25977H17.696C18.138 9.25977 18.5619 9.43536 18.8745 9.74792C19.187 10.0605 19.3626 10.4844 19.3626 10.9264C19.3626 11.3685 19.187 11.7924 18.8745 12.1049C18.5619 12.4175 18.138 12.5931 17.696 12.5931H17.621C17.3528 12.5942 17.0908 12.6736 16.8672 12.8217C16.6437 12.9698 16.4683 13.18 16.3626 13.4264Z" stroke="#2F3567" stroke-width="1.5" stroke-linecap="round" stroke-linejoin="round"/>
<path d="M13.5625 7.4375L7.4375 13.5625" stroke="#FF6F3F" stroke-linecap="round" stroke-linejoin="round"/>
<path d="M8.09375 9.1875C8.69781 9.1875 9.1875 8.69781 9.1875 8.09375C9.1875 7.48969 8.69781 7 8.09375 7C7.48969 7 7 7.48969 7 8.09375C7 8.69781 7.48969 9.1875 8.09375 9.1875Z" stroke="#FF6F3F" stroke-linecap="round" stroke-linejoin="round"/>
<path d="M12.9062 14C13.5103 14 14 13.5103 14 12.9062C14 12.3022 13.5103 11.8125 12.9062 11.8125C12.3022 11.8125 11.8125 12.3022 11.8125 12.9062C11.8125 13.5103 12.3022 14 12.9062 14Z" stroke="#FF6F3F" stroke-linecap="round" stroke-linejoin="round"/>
</g>
<defs>
<clipPath id="clip0_6616_4658">
<rect width="20" height="20" fill="white" transform="translate(0.196289 0.925781)"/>
</clipPath>
</defs>
</svg>
