<svg width="24" height="24" viewBox="0 0 24 24" fill="none" xmlns="http://www.w3.org/2000/svg">
<g clip-path="url(#clip0_7075_4894)">
<circle cx="12" cy="12" r="11.6" fill="white" stroke="#2F3567" stroke-width="0.8"/>
<path fill-rule="evenodd" clip-rule="evenodd" d="M6.36331 17.4777C6.59269 17.3413 6.74739 17.1213 6.81318 16.8777C6.8772 16.6322 6.85052 16.3632 6.71894 16.1286C6.58558 15.8941 6.37043 15.7359 6.13215 15.6705C5.89211 15.605 5.62894 15.6323 5.39956 15.7668C5.31065 15.8195 5.19507 15.7886 5.14351 15.6977C5.14173 15.6941 5.13995 15.6905 5.13817 15.6868L4.1193 13.8815C4.11219 13.8705 4.10507 13.8596 4.10152 13.8487C3.99483 13.6506 3.97527 13.4251 4.02861 13.2215C4.08196 13.0179 4.20998 12.8342 4.39847 12.7161C4.40913 12.7088 4.4198 12.7015 4.43047 12.6961L5.89566 11.8306L14.3614 4.21098C14.5339 4.05644 14.7508 3.98735 14.9642 4.0019C15.1776 4.01644 15.3856 4.1128 15.5367 4.28916L19.7883 9.23075C19.7883 9.23075 19.7954 9.23802 19.799 9.24348C19.9465 9.41802 20.0123 9.63801 19.9981 9.85254C19.9839 10.0671 19.8914 10.278 19.7243 10.4325C19.7207 10.4362 19.7172 10.4398 19.7118 10.4434L18.8281 11.2379L19.4736 12.3815C19.4807 12.3924 19.4878 12.4033 19.4913 12.4142C19.598 12.6124 19.6176 12.8379 19.5642 13.0415C19.5109 13.2451 19.3829 13.4287 19.1944 13.5469C19.1837 13.5542 19.173 13.5615 19.1624 13.5669L13.2145 17.0777C13.1683 17.1049 13.1131 17.1104 13.0651 17.094L12.1565 16.805L11.9467 17.754C11.9342 17.8085 11.9022 17.8522 11.8578 17.8776L8.46508 19.8812C8.26592 19.9994 8.03832 20.023 7.83384 19.9666C7.62757 19.9103 7.44265 19.7739 7.32884 19.5703C7.32707 19.5667 7.32529 19.563 7.32351 19.5594L6.29574 17.7376C6.24418 17.6467 6.27441 17.5304 6.36331 17.4777ZM7.544 10.8543L7.80539 10.6998C7.85162 10.6725 7.90674 10.6671 7.95475 10.6834L8.86338 10.9725L9.0732 10.0234C9.08565 9.9689 9.11766 9.92527 9.16211 9.89981L15.1242 6.37997C15.1278 6.37815 15.1313 6.37633 15.1367 6.3727C15.3323 6.26179 15.5545 6.23998 15.7555 6.29452C15.9617 6.35088 16.1467 6.48724 16.2605 6.69087C16.2622 6.6945 16.264 6.69814 16.2658 6.70177L17.2936 8.52351C17.3451 8.61442 17.3149 8.73077 17.226 8.7835C16.9966 8.91986 16.8419 9.13985 16.7779 9.38347C16.7139 9.62892 16.7406 9.89799 16.8721 10.1325C17.0055 10.3671 17.2206 10.5252 17.4589 10.5907C17.699 10.6561 17.9621 10.6289 18.1933 10.4943C18.2822 10.4416 18.396 10.4725 18.4476 10.5652L18.6361 10.898L19.47 10.1489C19.5642 10.0634 19.6176 9.94708 19.6247 9.82709C19.6318 9.70709 19.5945 9.58528 19.5127 9.4871L15.2576 4.54005C15.174 4.44369 15.0602 4.38915 14.9428 4.38188C14.8255 4.37461 14.7064 4.41279 14.6103 4.49642L7.544 10.8543ZM11.2905 15.6559L11.4506 15.9377C11.5021 16.0286 11.6177 16.0595 11.7066 16.0068C11.7955 15.9541 11.8258 15.8359 11.7742 15.745L11.6142 15.4632C11.5626 15.3723 11.4488 15.3414 11.3581 15.3941C11.2692 15.4468 11.239 15.565 11.2905 15.6559ZM10.7784 14.7487L10.9367 15.0305C10.9883 15.1214 11.1021 15.1541 11.191 15.1014C11.2799 15.0487 11.3119 14.9323 11.2603 14.8414L11.1003 14.5596C11.0487 14.4687 10.9349 14.436 10.846 14.4887C10.7571 14.5414 10.7251 14.6578 10.7767 14.7487H10.7784ZM10.2663 13.8433L10.4264 14.1251C10.4779 14.216 10.5935 14.2469 10.6824 14.1942C10.7713 14.1414 10.8016 14.0233 10.75 13.9324L10.59 13.6506C10.5384 13.5596 10.4228 13.5287 10.3339 13.5815C10.245 13.6342 10.2148 13.7505 10.2663 13.8433ZM9.75423 12.936L9.91426 13.2178C9.96583 13.3088 10.0796 13.3415 10.1685 13.2888C10.2574 13.236 10.2895 13.1197 10.2379 13.0288L10.0779 12.747C10.0263 12.6561 9.91248 12.6233 9.82358 12.6761C9.73467 12.7288 9.70266 12.8451 9.75423 12.936ZM9.24213 12.0288L9.40216 12.3106C9.45372 12.4015 9.56753 12.4342 9.65643 12.3815C9.74534 12.3288 9.77735 12.2124 9.72578 12.1215L9.56575 11.8397C9.51418 11.7488 9.40038 11.7161 9.31147 11.7688C9.22257 11.8215 9.19056 11.9379 9.24213 12.0288ZM9.97294 15.1705L7.90852 16.3886C7.81961 16.4413 7.78938 16.5595 7.84095 16.6504C7.89252 16.7413 8.00809 16.7722 8.097 16.7195L10.1614 15.5014C10.2503 15.4487 10.2806 15.3305 10.229 15.2396C10.1774 15.1487 10.0618 15.1178 9.97294 15.1705ZM10.0441 16.3195L8.84738 17.0268C8.75847 17.0795 8.72646 17.1958 8.77803 17.2868C8.8296 17.3777 8.9434 17.4104 9.0323 17.3577L10.229 16.6504C10.3179 16.5977 10.3499 16.4813 10.2983 16.3904C10.2468 16.2995 10.133 16.2668 10.0441 16.3195ZM9.03586 14.536L7.83917 15.2432C7.75026 15.2959 7.72004 15.4123 7.7716 15.505C7.82317 15.5959 7.93697 15.6268 8.02765 15.5741L9.22434 14.8669C9.31325 14.8141 9.34348 14.6978 9.29191 14.6051C9.24035 14.5142 9.12477 14.4832 9.03586 14.536ZM8.96651 13.3887L6.90209 14.6069C6.81318 14.6596 6.78118 14.776 6.83274 14.8669C6.88431 14.9578 6.99811 14.9905 7.08702 14.9378L9.15144 13.7196C9.24035 13.6669 9.27235 13.5506 9.22079 13.4597C9.16922 13.3687 9.05542 13.336 8.96651 13.3887ZM8.02943 12.7524L6.83274 13.4597C6.74384 13.5124 6.71183 13.6287 6.76339 13.7196C6.81496 13.8105 6.92876 13.8433 7.01767 13.7905L8.21436 13.0833C8.30327 13.0306 8.33527 12.9142 8.28371 12.8233C8.23214 12.7324 8.11834 12.6997 8.02943 12.7524ZM7.17237 16.9759C7.09946 17.2577 6.93765 17.514 6.70472 17.7013L7.64535 19.3685C7.64535 19.3685 7.64891 19.3757 7.65069 19.3776C7.71292 19.4885 7.81606 19.5648 7.92986 19.5957C8.04366 19.6266 8.16813 19.6139 8.27659 19.5503L11.5982 17.5886L11.8311 16.5286C11.8311 16.5286 11.8347 16.5122 11.8364 16.5032C11.8667 16.4013 11.9716 16.3468 12.0711 16.3777L13.0954 16.7031L18.9863 13.2251C19.0948 13.1615 19.1677 13.056 19.1979 12.9397C19.2282 12.8233 19.2157 12.6961 19.1535 12.5833L18.2057 10.9052C17.9301 11.0198 17.6314 11.0325 17.3576 10.9579C17.0251 10.867 16.7281 10.6471 16.5432 10.3198C16.3582 9.99254 16.3209 9.61801 16.4098 9.27984C16.4827 8.99803 16.6428 8.74168 16.8775 8.55442L15.9368 6.88722C15.9368 6.88722 15.9333 6.87995 15.9315 6.87813C15.8693 6.76723 15.7661 6.69087 15.6523 6.65996C15.5421 6.62905 15.4194 6.64178 15.3127 6.70177L15.3056 6.70723L9.41283 10.1853L9.17989 11.2452C9.17989 11.2452 9.17633 11.2616 9.17456 11.2707C9.14433 11.3725 9.03942 11.4288 8.93984 11.3961L7.91563 11.0707L4.59406 13.0324C4.4856 13.096 4.41269 13.2015 4.38246 13.3178C4.35223 13.4342 4.36468 13.5615 4.42692 13.6742L5.37467 15.3505C5.65028 15.2359 5.94901 15.2232 6.22284 15.2978C6.55535 15.3887 6.8523 15.6086 7.03723 15.9359C7.22216 16.2632 7.2595 16.6377 7.17059 16.9759H7.17237Z" fill="#2F3567" stroke="#2F3567" stroke-width="0.4"/>
<path fill-rule="evenodd" clip-rule="evenodd" d="M16.0471 11.8701C16.0471 11.8701 16.04 11.8646 16.0364 11.8628C15.7822 11.7137 15.4941 11.6828 15.2327 11.7537C14.9731 11.8246 14.7384 11.9973 14.5908 12.2555L14.5873 12.261C14.4414 12.5191 14.413 12.8137 14.4823 13.0809C14.5517 13.3482 14.7224 13.59 14.9767 13.7391C15.2309 13.8882 15.519 13.9191 15.7804 13.8482C16.0382 13.7773 16.2694 13.6082 16.417 13.3536C16.4187 13.35 16.4223 13.3464 16.4241 13.3427C16.5699 13.0827 16.6001 12.7882 16.5308 12.5209C16.4614 12.2573 16.296 12.021 16.0471 11.8701ZM16.168 12.6191C16.1236 12.4482 16.0169 12.2955 15.8586 12.1991C15.8551 12.1991 15.8533 12.1955 15.8497 12.1937C15.6861 12.0973 15.4994 12.0773 15.3305 12.1246C15.1616 12.1719 15.0087 12.2828 14.9144 12.45C14.8202 12.6173 14.8006 12.8082 14.8469 12.9827C14.8931 13.1555 15.0016 13.3118 15.1669 13.4082C15.3305 13.5045 15.5172 13.5245 15.6861 13.4773C15.8533 13.4318 16.0027 13.3227 16.0969 13.1609C16.0969 13.1573 16.1004 13.1555 16.1022 13.1518C16.1965 12.9846 16.216 12.7937 16.1698 12.6209L16.168 12.6191ZM12.8962 10.0102C12.8962 10.0102 12.8891 10.0047 12.8856 10.0029C12.6313 9.8538 12.3432 9.82289 12.0818 9.89379C11.824 9.9647 11.5929 10.1338 11.4453 10.3883C11.4435 10.392 11.4399 10.3956 11.4382 10.3992C11.2924 10.6592 11.2621 10.9537 11.3315 11.221C11.4008 11.4865 11.5697 11.7264 11.8222 11.8773L11.8276 11.881C12.0801 12.0301 12.3681 12.0592 12.6295 11.9882C12.8909 11.9173 13.1274 11.7428 13.2732 11.4828C13.419 11.2228 13.4492 10.9283 13.3799 10.661C13.3105 10.3974 13.1452 10.1611 12.8962 10.0102ZM13.0172 10.7592C12.9727 10.5883 12.866 10.4356 12.7078 10.3392C12.7042 10.3392 12.7024 10.3356 12.6989 10.3338C12.5353 10.2374 12.3486 10.2174 12.1796 10.2647C12.0125 10.3101 11.8631 10.4192 11.7689 10.581C11.7689 10.5847 11.7653 10.5865 11.7636 10.5901C11.6693 10.7574 11.6498 10.9483 11.696 11.121C11.7422 11.2955 11.8507 11.4501 12.0143 11.5464C12.1779 11.6428 12.3646 11.6628 12.5353 11.6155C12.7042 11.5683 12.8571 11.4574 12.9514 11.2883C13.0456 11.121 13.0652 10.9301 13.0189 10.7574L13.0172 10.7592ZM14.7864 9.97015L12.7487 13.5791C12.6971 13.67 12.7273 13.7882 12.8162 13.8409C12.9051 13.8936 13.0207 13.8627 13.0723 13.7718L15.11 10.1629C15.1616 10.072 15.1314 9.95379 15.0425 9.90107C14.9535 9.84834 14.838 9.87925 14.7864 9.97015Z" fill="#FF6F3F" stroke="#FF6F3F" stroke-width="0.4"/>
</g>
<defs>
<clipPath id="clip0_7075_4894">
<rect width="24" height="24" fill="white"/>
</clipPath>
</defs>
</svg>
